<?xml version="1.0" standalone="no"?>
<!DOCTYPE svg PUBLIC "-//W3C//DTD SVG 1.1//EN" "http://www.w3.org/Graphics/SVG/1.1/DTD/svg11.dtd">
<svg xmlns="http://www.w3.org/2000/svg">
<metadata>Generated by Fontastic.me</metadata>
<defs>
<font id="multicard" horiz-adv-x="512">
<font-face font-family="multicard" units-per-em="512" ascent="480" descent="-32"/>
<missing-glyph horiz-adv-x="512" />

<glyph glyph-name="home" unicode="&#99;" d="M256 400l-160-128 0-208 112 0 0 128 96 0 0-128 112 0 0 208z m144-320l-80 0 0 128-128 0 0-128-80 0 0 184 144 116 144-116z m-144 368l-96-77 0 45-64 0 0-96-32-25 12-12 180 145 180-145 12 12z m-112-90l-32-25 0 67 32 0z"/>
<glyph glyph-name="menu" unicode="&#100;" d="M96 271l320 0 0-32-320 0z m0 96l320 0 0-32-320 0z m0-192l320 0 0-32-320 0z"/>
<glyph glyph-name="rss-o" unicode="&#101;" d="M120 176c-31 0-56-25-56-56 0-31 25-56 56-56 31 0 56 25 56 56 0 31-25 56-56 56z m0-96c-22 0-40 18-40 40 0 22 18 40 40 40 22 0 40-18 40-40 0-22-18-40-40-40z m-56 240l0-80c48 0 94-14 128-48 34-34 48-80 48-128l80 0c0 140-116 256-256 256z m240-240l-48 0c-4 50-21 92-53 123-31 32-73 49-123 53l0 47c26-1 52-8 77-18 28-12 54-30 76-52 22-22 40-48 52-76 11-25 17-51 19-77z m-240 368l0-80c171 0 304-133 304-304l80 0c0 212-172 384-384 384z m227-157c-56 57-130 89-211 93l0 48c190-9 344-162 352-352l-48 0c-4 81-37 155-93 211z"/>
<glyph glyph-name="rss" unicode="&#102;" d="M120 176c-31 0-56-25-56-56 0-31 25-56 56-56 31 0 56 25 56 56 0 31-25 56-56 56z m-56 144l0-80c48 0 94-14 128-48 34-34 48-80 48-128l80 0c0 140-116 256-256 256z m0 128l0-80c171 0 304-133 304-304l80 0c0 212-172 384-384 384z"/>
<glyph glyph-name="whatsapp" unicode="&#103;" d="M210 358c-4 11-9 10-13 11-3 0-6 0-10 0-4-1-10-2-15-7-6-5-21-18-22-46-1-27 18-54 21-58 3-4 36-63 93-88 56-24 56-17 67-16 10 0 33 12 38 25 6 13 6 24 5 26-2 3-5 4-11 7-5 3-32 18-37 20-6 2-9 3-13-3-4-5-15-17-19-21-3-3-7-4-12-1-6 3-23 10-44 30-16 15-27 34-30 39-3 6 0 9 3 12 3 2 6 6 9 9 3 3 4 5 6 9 2 4 1 7 0 10-2 3-12 31-16 42z m50 90c50 0 98-19 133-55 35-35 55-82 55-131 0-50-20-97-55-132-35-35-83-54-133-54-32 0-63 8-91 23l-12 6-13-4-61-19 19 57 5 14-8 13c-18 29-27 62-27 96 0 49 20 96 55 131 36 36 83 55 133 55m0 32c-121 0-220-98-220-218 0-41 12-80 32-113l-40-117 122 39c31-18 68-27 106-27 122 0 220 97 220 218 0 120-98 218-220 218z"/>
<glyph glyph-name="up" unicode="&#104;" d="M424 253c14 4 24 17 24 32 0 19-15 35-34 35l-103 0c2 25 10 54 1 87-7 29-39 50-52 37-5-5-4-15-4-34 0-43-18-86-40-108-9-10-25-13-40-14l0 16-112 0 0-240 112 0 0 32c21 0 53-5 76-7 52-3 102 3 126 8 24 6 35 13 35 31 0 6-2 12-5 17 12 5 20 17 20 30 0 7-2 14-6 19 12 5 20 16 20 30 0 13-7 23-18 29z m-312-157c-9 0-16 7-16 16 0 9 7 16 16 16 9 0 16-7 16-16 0-9-7-16-16-16z"/>
<glyph glyph-name="persons" unicode="&#105;" d="M425 187c-41 16-39 10-39 39 0 18 10 12 16 47 2 14 4 5 9 28 2 11-2 12-1 18 0 6 1 11 2 22 1 15-12 52-58 52-46 0-58-37-57-52 1-11 1-16 2-22 0-6-4-7-1-18 4-23 6-13 9-28 6-35 15-29 15-47 0-14 3-19-15-28 5-2 12-4 19-7 55-21 53-41 55-50 1-7 1-59 1-77l98 0c0 0 0 80-1 90-2 7-11 17-54 33z m-68-123c0 0 0 14 0 30 0 19-1 40-2 47-1 9-14 22-68 43-8 2-14 5-20 7-33 12-31 15-31 48 0 24 12 8 20 54 3 19 5 6 12 36 3 15-3 16-2 23 1 8 1 14 3 29 1 18-15 67-74 67-60 0-76-48-75-67 2-15 2-21 3-29 1-7-5-8-1-23 6-30 8-17 11-36 8-46 20-30 20-54 0-38 3-35-50-55-55-21-67-34-69-43-2-12-2-77-2-77z"/>
<glyph glyph-name="settings" unicode="&#106;" d="M450 374l-48-49-2-3-2-1c-1-1-2-2-4-2-1 0-3 1-4 2l-1 1-3 3-41 42-4 4c-1 1-2 3-2 5 0 2 1 3 2 4l1 1 2 3 48 48c-5 11-24 15-35 15-17-2-35-7-53-26 0-1-1-2-2-2-24-27-29-63-19-96 0-1 1-3 1-5 1-5 0-10-4-13l-38-37c-11 12-13 14-13 14-2 2-6 3-10 1l-6-3c-22 23-32 32-35 43-3 12 0 28 3 33 2 5 10 9 17 10l8-9c2-2 5-2 7 0l31 31c2 2 2 6 0 8l-50 50c-2 2-5 2-7 0l-31-31c-2-2-2-5 0-7l4-4c0-5-1-12-5-16-6-7-19 1-27-5-7-6-17-15-24-21-6-6-30-32-48-75-17-42-4-82 6-93 5-5 14-11 12 0-1 10-4 47 8 62 12 14 28 27 48 28 20 1 31-6 56-32l-3-5c-1-3 0-8 2-10 0 0 1-1 12-12l-97-93c-17-15-16-41-1-56 15-16 41-17 55 0l92 98c49-52 93-107 93-107 2-2 5-2 7 0l50 51c2 2 2 5 0 7 0 0-55 46-107 96l36 39c3 3 8 5 13 4 1-1 3-1 4-2 33-10 68-5 94 20 1 0 2 1 3 2 18 18 23 36 25 54 1 10-4 30-14 36z"/>
<glyph glyph-name="monitor" unicode="&#107;" d="M469 448l-426 0c-6 0-11-5-11-11l0-266c0-6 5-11 11-11l426 0c6 0 11 5 11 11l0 266c0 6-5 11-11 11z m-21-256l-384 0 0 224 384 0z m-145-128c28 0 41 4 29 12-13 9-29 16-29 23-1 4-2 45-2 45l-90 0c0 0-1-41-1-45-1-7-17-14-29-23-13-8 1-12 29-12z"/>
<glyph glyph-name="laptop" unicode="&#108;" d="M480 406c0 5-4 10-10 10l-428 0c-5 0-10-5-10-10l0-262 448 0z m-32-230l-384 0 0 208 384 0z m-448-53c70-20 116-27 256-27 140 0 186 7 256 27l0 5-512 0z"/>
<glyph glyph-name="lightbulb" unicode="&#109;" d="M256 480c-71 0-128-55-128-124 0-5 0-10 1-14 1-6 2-11 3-16 0-1 0-1 0-2 17-62 46-71 59-167 0 0 0-1 0-1 2-9 10-12 20-12l90 0c10 0 18 3 20 12 0 0 0 1 0 1 13 96 42 104 59 167 0 1 0 1 0 2 1 5 2 10 3 16 1 4 1 9 1 14 0 69-57 124-128 124z m62-365c0 1 0 1 0 1 1 2 2 4 2 6 0 3 2 6-7 6l-114 0c-8 0-7-2-7-6 0-2 1-4 2-6 0 0 0 0 0-1 0 0 0 0 0 0 2-2 3-4 3-7 0-3-1-5-2-8-1 0-1-1-1-1-1-2-2-3-2-5 0-3 1-4 2-6 0 0 0-1 0-1 2-3 3-4 3-8 0-3-1-5-2-7-1 0-1-1-1-1-1-2-2-4-2-6 0-5 4-10 10-11 1 0 1 0 1-1 6-1 12-1 19-2 0 0 1 0 2 0 6-1 10-4 13-8 4-5 11-11 19-11 8 0 14 5 18 10 3 5 8 8 14 9 1 0 2 0 2 0 7 1 13 1 19 3 0 0 1 0 1 0 6 1 10 6 10 11 0 2-1 4-2 6 0 0 0 1 0 1-2 3-3 4-3 7 0 4 1 6 3 8 0 0 0 1 0 1 1 2 2 4 2 6 0 2-1 4-2 5 0 1 0 1 0 1-2 3-3 5-3 8 0 3 1 5 3 7 0 0 0 0 0 0z"/>
<glyph glyph-name="levels" unicode="&#110;" d="M127 413l0 19c0 9-7 16-16 16-9 0-16-7-16-16l0-22c-8-5-14-15-14-26 0-11 6-21 14-27l0-277c0-9 7-16 16-16 9 0 16 7 16 16l0 275c11 5 18 16 18 29 0 13-7 24-18 29z m96-194l0 213c0 9-7 16-16 16-9 0-16-7-16-16l0-212c-10-5-17-16-17-28 0-12 7-23 17-28l0-84c0-9 7-16 16-16 9 0 16 7 16 16l0 85c9 6 15 16 15 27 0 11-6 21-15 27z m96 130l0 83c0 9-7 16-16 16-9 0-16-7-16-16l0-83c-10-6-16-16-16-28 0-12 6-22 16-28l0-213c0-9 7-16 16-16 9 0 16 7 16 16l0 213c10 6 16 16 16 28 0 12-6 22-16 28z m112-220c0 12-6 22-16 28l0 275c0 9-7 16-16 16-9 0-16-7-16-16l0-275c-10-6-16-16-16-28 0-12 6-22 16-28l0-21c0-9 7-16 16-16 9 0 16 7 16 16l0 21c10 6 16 16 16 28z"/>
<glyph glyph-name="world" unicode="&#111;" d="M256 464c0 0 0 0 0 0 0 0 0 0 0 0 0 0 0 0 0 0-115 0-208-93-208-208 0-115 93-208 208-208 0 0 0 0 0 0 0 0 0 0 0 0 0 0 0 0 0 0 115 0 208 93 208 208 0 115-93 208-208 208z m8-125c22 1 44 4 65 9 6-25 10-53 10-84l-75 0z m0 17l0 90c23-6 46-36 60-82-19-5-39-7-60-8z m-16 90l0-90c-21 1-41 3-60 8 14 46 37 76 60 82z m0-107l0-75-76 0c1 31 5 60 11 84 21-5 43-8 65-9z m-92-75l-91 0c2 43 18 82 43 113 19-10 38-18 59-25-7-26-11-56-11-88z m0-16c0-32 4-62 11-89-21-6-40-14-59-24-25 31-41 70-43 113z m16 0l76 0 0-75c-22-1-44-4-65-9-6 24-10 53-11 84z m76-92l0-90c-23 6-46 36-60 82 19 5 39 7 60 8z m16-90l0 90c21-1 41-3 60-8-14-46-37-76-60-82z m0 107l0 75 75 0c0-31-4-60-10-84-21 5-43 8-65 9z m92 75l91 0c-2-43-18-82-43-113-19 10-39 18-59 25 6 26 10 56 11 88z m0 16c-1 32-5 62-11 88 20 7 40 15 59 25 25-31 41-70 43-113l-91 0z m36 126c-16-9-34-16-52-22-10 32-23 57-39 74 35-8 67-27 91-52z m-181 52c-16-17-30-42-39-73-19 5-36 12-52 21 24 25 56 43 91 52z m-91-320c16 9 33 16 51 21 10-31 24-56 40-73-35 9-67 27-91 52z m181-52c16 17 29 42 39 74 19-6 36-13 53-22-25-25-57-44-92-52z"/>
<glyph glyph-name="searchs" unicode="&#112;" d="M345 214c15 24 23 52 23 82 0 84-68 152-152 152-84 0-152-68-152-152 0-84 68-153 152-153 31 0 59 9 83 25l7 5 108-109 34 34-108 109z m-44 167c23-23 36-53 36-85 0-32-13-63-36-85-22-23-52-35-85-35-32 0-62 12-85 35-22 22-35 53-35 85 0 32 13 62 35 85 23 22 53 35 85 35 33 0 63-13 85-35z"/>
<glyph glyph-name="search" unicode="&#113;" d="M448 87l-113 114c21 26 33 59 33 95 0 84-68 152-152 152-84 0-152-68-152-152 0-84 68-152 152-152 37 0 70 12 96 33l113-113z m-328 112c-26 26-40 60-40 97 0 36 15 70 40 96 26 26 60 40 96 40 37 0 71-14 97-40 25-26 39-60 39-96 0-37-14-71-39-97-26-25-60-39-97-39-36-1-70 14-96 39z"/>
<glyph glyph-name="settingss" unicode="&#114;" d="M32 136l283 0c7 14 21 24 37 24 16 0 30-10 37-24l91 0 0-32-91 0c-7-14-21-24-37-24-16 0-30 10-37 24l-283 0m0 168l91 0c7 14 21 24 37 24 16 0 30-10 37-24l283 0 0-32-283 0c-7-14-21-24-37-24-16 0-30 10-37 24l-91 0m0 168l283 0c7 14 21 24 37 24 16 0 30-10 37-24l91 0 0-32-91 0c-7-14-21-24-37-24-16 0-30 10-37 24l-283 0"/>
<glyph glyph-name="people" unicode="&#115;" d="M349 177c12-4-11 4 0 0z m0 0c-13 5-28 5-41 10-4 1-13 3-14 8-2 4-2 10-2 14 0 4 0 8 0 12 0 2 6 8 7 10 6 9 6 21 7 31 9-2 10 14 12 19 1 3 7 27-3 23 2 5 3 10 4 15 2 13 3 27-1 39-8 26-33 41-59 42-27 1-54-12-64-38-5-13-4-26-3-39 1-6 2-13 5-19-10 3-4-17-3-21 1-5 3-23 12-21 1-8 2-16 4-24 1-5 4-10 8-14 2-2 3-2 3-5-1-8 0-16-2-24-2-7-19-10-26-12-18-3-34-5-49-16-18-13-27-33-27-55 83 0 167 0 250 0 9 0 19 0 28 0 0 29-18 55-46 65z m-206 12c1 1 2 1 2 1 0 0-1 0-1 0 0 0 0 0-1-1z m0 0c-3-1-7-3 1 1 3 1 3 1 1 0 7 3 14 4 21 5 3 0 4 2 2 5-4 5-17 6-23 8-4 2-5 3-5 7 0 2-1 10 0 11 1 1 7 1 9 1 6 1 11 2 17 4 2 1 4 2 6 3 3 2-2 6-3 9-3 7-5 16-5 24-1 16 1 32-2 48-4 25-23 37-47 37-15 0-30-5-38-18-9-15-9-32-8-49 0-9 1-18-1-28 0-4-1-8-3-11-1-3-6-10-4-12 8-6 22-8 32-7 0-5 1-11 0-16-3-7-24-9-30-11-18-6-31-20-31-40 18 0 37 0 55 0 8 0 16 0 25 0 1 0 6 9 7 11 7 7 15 14 24 18z m306 11c-8 3-23 3-29 10-3 4-1 13-1 17 4 0 9 0 14 1 4 1 8 1 12 3 1 0 3 1 5 2 4 2 2 3 0 6-11 19-6 42-7 62 0 17-4 35-20 44-13 9-34 9-48 3-43-17-18-73-32-105-3-6-6-8 0-11 4-2 7-3 11-4 6-1 12-2 18-2 1 0 0-13 0-14-1-5-12-6-16-7-4-2-11-2-13-6-3-7 10-5 13-6 11-1 20-7 28-14 6-5 14-11 16-19 27 0 54 0 80 0 0 20-13 34-31 40z"/>
<glyph glyph-name="peopleo" unicode="&#116;" d="M349 177c-13 5-28 5-41 10-4 1-13 3-14 8-2 4-2 10-2 14 0 4 0 8 0 12 0 2 6 8 7 10 6 9 6 21 7 31 9-2 10 14 12 19 1 3 7 27-3 23 2 5 3 10 4 15 2 13 3 27-1 39-8 26-33 41-59 42-27 1-54-12-64-38-5-13-4-26-3-39 1-6 2-13 5-19-10 3-4-17-3-21 1-5 3-23 12-21 1-8 2-16 4-24 1-5 4-10 8-14 2-2 3-2 3-5-1-8 0-16-2-24-2-7-19-10-26-12-18-3-34-5-49-16-18-13-27-33-27-55 83 0 167 0 250 0 9 0 19 0 28 0 0 29-18 55-46 65-11 4 12-4 0 0z m-202-29c6 6 13 11 21 14 10 4 22 4 33 7 9 2 20 6 27 12 6 6 7 16 8 24 0 7 0 14 0 21 0 5-6 7-8 11-5 6-5 16-6 23 0 3 0 7-3 9-3 3-5 4-7 8-2 5-3 11-4 16-1 4 2 7 4 10 2 5-2 13-3 19-3 16-3 34 9 47 24 26 78 18 86-19 2-11 1-25-2-36-2-5-3-8-1-13 5-7 3-11 1-19-2-6-4-9-9-13-4-3-3-11-4-16-1-5-1-11-4-16-2-2-9-7-9-9 0-11 0-22 2-33 2-16 15-19 28-25 13-5 29-3 41-9 14-7 26-19 30-33-79 0-158 0-238 0-1 0-3 0-4 0 2 8 7 14 12 20 9 10-6-6 0 0z m-3 42c7 3 15 4 22 5 3 0 5 2 2 5-4 5-17 6-23 8-4 2-5 3-5 7 0 2-1 10 0 11 1 1 8 1 9 1 6 1 11 2 17 4 2 1 4 2 6 3 3 2-1 7-3 9-3 7-4 16-5 24-1 16 2 32-1 48-5 25-24 37-48 37-15 0-30-5-38-18-9-14-9-32-8-49 0-9 1-18-1-28 0-4-1-7-3-11-1-3-6-10-4-12 8-6 22-8 32-7 1-5 1-11 0-16-3-7-24-9-30-11-18-6-31-21-31-40 18 0 37 0 55 0 8 0 16 0 25 0 1 0 6 9 7 11 7 8 16 14 25 19 9 4-14-7 0 0z m-41-14c-16 0-33 0-49 0 7 12 25 11 37 15 10 4 17 11 18 22 0 1 1 29-1 29-8 1-17 0-26 2 7 22 0 45 4 68 3 16 13 25 30 25 16 0 27-8 31-24 5-23-2-46 5-69-5-2-11-2-17-2-3 0-6 0-8-1-2 0-2-3-2-4-1-11-5-28 4-37-10-6-20-14-26-24z m297-16c27 0 53 0 80 0 0 19-13 34-31 40-8 3-23 3-29 10-3 4-1 13-1 17 4 0 9 0 14 1 4 1 8 1 12 3 1 0 3 1 5 2 4 2 2 3 0 6-11 19-6 42-7 62 0 17-4 35-20 44-13 9-34 9-48 3-43-17-18-73-32-105-3-6-6-8 0-11 4-2 7-3 11-4 6-1 12-2 18-2 1 0 0-13 0-14-1-5-12-6-16-7-4-2-11-2-13-6-3-7 10-5 13-6 11-1 20-7 28-14 6-4 14-11 16-19z m-1 27c-5 5-10 9-16 13 9 9 5 26 4 37-1 6-2 5-8 5-6 0-13 0-19 2 7 22 1 45 5 68 3 17 15 25 32 25 15 0 26-8 29-23 5-23-3-47 4-70-8-1-17-1-26-1-2 0-2-25-1-28 0-11 6-18 17-23 12-5 31-3 38-16-9 0-18 0-28 0-5 0-11 0-16 0-8 0-9 6-15 11-5 5 4-4 0 0z"/>
<glyph glyph-name="monitoro" unicode="&#117;" d="M496 128l0 288-480 0 0-288 175 0 0-16-64 0 0-16 257 0 0 16-64 0 0 16z m-464 272l448 0 0-256-448 0z"/>
<glyph glyph-name="monitord" unicode="&#118;" d="M496 128l0 288-480 0 0-288 175 0 0-16-64 0 0-16 257 0 0 16-64 0 0 16z m-464 272l448 0 0-256-448 0z m16-16l416 0 0-224-416 0z"/>
<glyph glyph-name="papero" unicode="&#119;" d="M112 448l0-336 16 0 0 320 304 0 0-337c0-8-7-15-15-15l-322 0c-8 0-15 7-15 15l0 289 16 0 0 16-32 0 0-305c0-17 14-31 31-31l322 0c17 0 31 14 31 31l0 353z m48-48l128 0 0-16-128 0z m0-80l240 0 0-16-240 0z m0-80l192 0 0-16-192 0z m0-80l240 0 0-16-240 0z"/>
<glyph glyph-name="paper" unicode="&#120;" d="M112 448l0-336-16 0 0 288-32 0 0-305c0-17 14-31 31-31l322 0c17 0 31 14 31 31l0 353z m48-48l128 0 0-16-128 0z m0-160l192 0 0-16-192 0z m240-96l-240 0 0 16 240 0z m0 160l-240 0 0 16 240 0z"/>
<glyph glyph-name="email" unicode="&#121;" d="M64 384l0-256 384 0 0 256z m192-140l-163 124 326 0z m-176-100l0 214 115-88-68-77 2-2 79 70 48-37 48 37 79-70 2 2-68 77 115 88 0-214z"/>
<glyph glyph-name="briefcase" unicode="&#122;" d="M416 384l0 16-32 0 0-16-48 0 0 32c0 18-14 32-32 32l-99 0c-19 0-29-14-29-32l0-32-48 0 0 16-32 0 0-16-48 0 0-320 416 0 0 320z m-224 0l0 30c0 10 3 18 14 18l97 0c10 0 17-8 17-18l0-30-128 0z m256-304l-384 0 0 224 384 0z m0 240l-384 0 0 48 32 0 0-16 32 0 0 16 256 0 0-16 32 0 0 16 32 0z"/>
<glyph glyph-name="book" unicode="&#97;" d="M384 224l-64 0c-17 0-32-16-32-32l128 0c0 17-16 32-32 32z m-27 208c-84 0-105-16-117-28-12 12-33 28-116 28-84 0-124-23-124-39l0-293c15 8 60 24 107 28 58 4 117-5 117-16 0-8 4-16 16-16 0 0 0 0 0 0 0 0 0 0 1 0 11 0 15 8 15 16 0 11 60 20 117 16 47-4 93-20 107-28l0 293c0 16-40 39-123 39z m-133-286c-15 8-51 14-96 14-44 0-85-6-96-14 0 0 0 206 0 222 0 16 32 29 96 29 64 0 96-13 96-29 0-16 0-222 0-222z m224 0c-11 8-51 14-96 14-44 0-81-6-96-14 0 0 0 206 0 222 0 16 32 29 96 29 64 0 96-13 96-29 0-16 0-222 0-222z m-64 142l-64 0c-17 0-32-16-32-32l128 0c0 17-16 32-32 32z m0 64l-64 0c-17 0-32-16-32-32l128 0c0 17-16 32-32 32z m-224-64l-64 0c-16 0-32-15-32-32l128 0c0 16-15 32-32 32z m0-64l-64 0c-16 0-32-15-32-32l128 0c0 16-15 32-32 32z m0 128l-64 0c-16 0-32-15-32-32l128 0c0 16-15 32-32 32z"/>
<glyph glyph-name="download" unicode="&#98;" d="M384 128c0 5-2 9-5 13-4 3-8 5-13 5-5 0-10-2-13-5-4-4-6-8-6-13 0-5 2-9 6-13 3-3 8-5 13-5 5 0 9 2 13 5 3 4 5 8 5 13z m73 0c0 5-2 9-5 13-4 3-8 5-13 5-5 0-9-2-13-5-4-4-5-8-5-13 0-5 1-9 5-13 4-3 8-5 13-5 5 0 9 2 13 5 3 4 5 8 5 13z m37 64l0-91c0-8-3-15-8-20-6-5-12-8-20-8l-420 0c-8 0-14 3-20 8-5 5-8 12-8 20l0 91c0 8 3 14 8 19 6 6 12 8 20 8l133 0 38-38c11-11 24-16 39-16 15 0 28 5 39 16l39 38 132 0c8 0 14-2 20-8 5-5 8-11 8-19z m-93 163c3-8 2-15-4-20l-128-128c-4-4-8-6-13-6-5 0-9 2-13 6l-128 128c-6 5-7 12-4 20 3 7 9 11 17 11l73 0 0 128c0 5 2 9 6 13 3 3 7 5 12 5l74 0c5 0 9-2 12-5 4-4 6-8 6-13l0-128 73 0c8 0 14-4 17-11z"/>
<glyph glyph-name="sii" unicode="&#65;" d="M0 511l0 7 4 0 0-7z m1 0l3 0 0 6-3 0z m3 4l0-3 0 0 0 3c0 0 0 0-1 1 0 0 0 0 0 0-1 0-1 0-1-1 0 0-1 0-1-1l0-2 0 0 0 6 0 0 0-2c1 0 1 0 1 0 0 0 1 0 1 0 0 0 1 0 1 0 0 0 0-1 0-1z m-3 3l0-2 2 0 0 0-2 0 0-3c0 0 1 0 1 0 0 0 0 0 0 0l1 0 0-1-1 0c0 0-1 0-1 0 0 1 0 1 0 1l0 3-1 0 0 0 1 0 0 2z m0-5l0-3 0 0 0 6 0 0 0 0c1 0 1 0 1 0 0 0 1 0 1 0 0 0 1 0 1 0 0-1 1-1 1-2 0 0-1-1-1-1 0-1-1-1-1-1 0 0-1 0-1 0 0 0 0 0-1 1z m3 1c0 1 0 1 0 1-1 1-1 1-1 1-1 0-1 0-1-1 0 0-1 0-1-1 0 0 1-1 1-1 0 0 0-1 1-1 0 0 0 1 1 1 0 0 0 1 0 1z m-3-1l1 0 0-1-1 0z m0 3l1 0 0-1-1 0z m1 2l1 0-2-7-1 0z m-1 0l0 0 0-6 0 0z m1-2c0 0 0 0 0-1-1 0-1 0-1-1 0 0 0-1 1-1 0 0 0 0 0 0 1 0 1 0 1 0 1 0 1 1 1 1 0 1 0 1-1 1 0 1 0 1-1 1z m0 0c1 0 2 0 2 0 0-1 0-1 0-2 0-1 0-1 0-1 0-1-1-1-2-1 0 0-1 0-1 1 0 0-1 0-1 1 0 1 1 1 1 2 0 0 1 0 1 0z m2-2c0 1 0 1-1 1 0 1 0 1-1 1 0 0 0 0 0-1-1 0-1 0-1-1 0 0 0-1 1-1 0 0 0 0 0 0 1 0 1 0 1 0 1 0 1 1 1 1z m0-1c0-1 0-2 0-2 0 0-1-1-2-1 0 0 0 0 0 0-1 0-1 0-1 1l0 0c0 0 0 0 1 0 0 0 0 0 0 0 1 0 1 0 1 0 1 1 1 1 1 1l0 1c-1 0-1-1-1-1 0 0 0 0-1 0 0 0-1 0-1 1 0 0-1 1-1 1 0 1 1 1 1 2 0 0 1 0 1 0 1 0 1 0 1 0 0 0 0 0 1 0l0 0 0 0z m0 3l0 0c-1 0-1 0-1 0 0 0-1 0-1 0 0 0 0 0-1 0 0 0 0-1 0-1 0 0 0 0 0 0 0 0 1 0 1 0l0 0c1-1 1-1 1-1 1 0 1 0 1-1 0 0 0-1-1-1 0 0 0 0-1 0 0 0-1 0-1 0 0 0 0 0-1 0l0 1c1 0 1 0 1 0 0 0 1-1 1-1 0 0 1 1 1 1 0 0 0 0 0 0 0 0 0 1 0 1 0 0-1 0-1 0l0 0c-1 0-1 0-1 0 0 1-1 1-1 1 0 1 1 1 1 1 0 0 1 0 1 0 0 0 1 0 1 0 0 0 0 0 1 0z m0 0l0 0c0 0-1 0-1 0 0 0 0 0 0 0-1 0-1 0-1-1-1 0-1 0-1-1 0 0 0-1 1-1 0 0 0 0 1 0 0 0 0 0 0 0 0 0 1 0 1 0l0-1c0 0 0 0-1 0 0 0 0 0 0 0-1 0-2 0-2 1 0 0-1 0-1 1 0 1 1 1 1 2 0 0 1 0 2 0 0 0 0 0 0 0 1 0 1 0 1 0z m-3 0l0 0 0-4 0 0z m0 2l0 0 0-1 0 0z m4-4l0 0-4 0c0 0 0-1 1-1 0 0 0 0 1 0 0 0 0 0 1 0 0 0 0 0 0 0l0-1c0 0 0 0 0 0-1 0-1 0-1 0-1 0-2 0-2 1 0 0-1 0-1 1 0 1 1 1 1 2 0 0 1 0 2 0 0 0 1 0 1 0 0 0 1-1 1-2z m-1 1c0 0 0 0-1 1 0 0 0 0 0 0-1 0-1 0-1 0-1-1-1-1-1-1z m-4 1l1 0 1-3 2 3 1 0-2-4-1 0z m3 0c0 0 0 0 0 0 0 0 0 0 0 0-1 0-1 0-1-1 0 0-1 0-1-1l0-2 0 0 0 4 0 0 0 0c1 0 1 0 1 0 0 0 1 0 1 0 0 0 0 0 0 0 0 0 0 0 0 0z m-2-3l1 0 0-1-1 0z m3 1c0 1 0 1 0 1-1 1-1 1-1 1-1 0-1 0-1-1 0 0-1 0-1-1 0 0 1-1 1-1 0 0 0-1 1-1 0 0 0 1 1 1 0 0 0 1 0 1z m-3 2c1 0 1 0 1 0 0 0 1 0 1 0 0 0 1 0 1 0 0-1 1-1 1-2 0 0-1-1-1-1 0-1-1-1-1-1 0 0-1 0-1 0 0 0 0 0-1 1l0-1 0 0 0 6 0 0z m3 0c0 0 1 0 1 0 0 0 0 0 1 0 0 0 0 0 1 0 0 0 0-1 0-1l0-3-1 0 0 3c0 0 0 0 0 1 0 0 0 0-1 0 0 0 0 0 0-1-1 0-1 0-1-1l0-2 0 0 0 3c0 0-1 0-1 1 0 0 0 0 0 0-1 0-1 0-1-1 0 0-1 0-1-1l0-2 0 0 0 4 0 0 0 0c1 0 1 0 1 0 0 0 1 0 1 0 0 0 0 0 1 0 0 0 0 0 0 0z m166-160l59 0 0 60-59 0z m87-221l61 0 0 211-61 0z m86 0l61 0 0 211-61 0z m-3 251c0-19 16-34 35-34 19 0 34 15 34 34 0 19-15 35-34 35-19 0-35-16-35-35m-86 0c0-19 16-34 35-34 19 0 34 15 34 34 0 19-15 35-34 35-19 0-35-16-35-35m-144-31c0 0-4-11-4-16 0-6 0-23 9-34 9-11 11-14 22-23 10-8 42-36 41-55 0-19-16-29-30-29-14 0-37 11-45 19l0-70c0 0 9-12 44-11 36 1 97 13 97 87 0 78-71 81-78 117 0 0-2 6 3 15z"/>
<glyph glyph-name="claro-chile" unicode="&#66;" d="M226 237c-4-1-8-1-9-3-4-2-5-5-5-9 0-4 1-7 3-8 2-2 4-3 7-3 5 0 9 2 13 4 4 3 5 8 5 15l0 9-4-2z m142 28c-6 1-11-2-16-6-4-4-6-10-6-16 0-7 2-12 6-16 5-5 10-7 16-7 7 0 12 2 16 7 4 4 7 9 7 16 0 6-2 12-7 16-4 4-10 7-16 6z m-112 245c-141 0-254-114-254-254 0-141 114-255 254-255 140 0 254 114 254 255 0 140-114 254-254 254z m105-154l19 0 0-53-19 0z m-287-126c6-6 14-9 23-9 7 0 12 2 18 5 5 4 9 8 12 14l21 0c-3-12-9-21-18-29-10-7-21-11-33-11-14 0-27 5-37 16-10 10-15 23-15 38 0 15 5 27 15 37 10 11 23 16 37 16 12 0 23-4 33-11 9-7 15-17 18-28l-21 0c-3 5-7 10-12 13-6 4-12 6-18 6-9 0-17-4-23-10-7-7-10-14-10-23 0-10 4-17 10-24z m105-30l-20 0 0 107 20 0z m83 0l-21 0 0 8c-6-5-15-8-26-8-7 0-13 2-17 6-5 4-7 10-7 17 0 11 4 18 12 23 4 2 10 4 17 5l16 3c3 1 5 3 5 6 0 3-1 6-4 7-2 1-6 2-10 2-5 0-9-1-11-4-1-2-2-4-3-8l-20 0c0 8 2 14 6 18 5 7 15 11 29 11 9 0 17-1 24-5 7-4 10-11 10-21z m55 65c-4 0-7-1-11-3-3-3-6-5-7-8-2-3-3-8-3-15l0-39-20 0 0 82 19 0 0-11c5 6 10 10 15 12l8 2 5 1 1-21z m82-53c-9-8-19-13-31-13-12 0-22 5-30 13-9 8-13 19-13 31 0 12 4 22 13 30 8 9 18 13 30 13 12 0 22-4 31-13 8-8 12-18 12-30 0-12-4-23-12-31z m2 84l50 49 13-13-49-49z m23-52l0 18 54 0 0-18z"/>
<glyph glyph-name="claro-letras" unicode="&#67;" d="M380 266c-14 0-26-5-35-15-10-10-15-22-15-36 0-14 5-26 15-36 9-10 21-15 35-15 14 0 26 5 36 15 9 10 14 22 14 36 0 14-5 26-14 36-10 10-22 15-36 15z m19-70c-5-5-12-8-19-8-7 0-14 3-19 8-5 6-8 12-8 19 0 8 3 14 8 19 5 5 12 8 19 8 7 0 14-2 19-8 5-5 7-11 8-19-1-7-3-13-8-19z m-336 71c7 0 14-2 21-7 5-4 10-9 13-15l25 0c-3 13-11 24-21 33-12 8-24 13-38 13-18 0-32-6-44-19-12-12-18-26-18-44 0-17 6-32 18-44 12-12 26-18 44-18 14 0 26 4 37 12 11 9 18 20 22 34l-25 0c-3-7-8-12-14-16-6-4-13-6-20-6-11 0-20 4-28 11-7 8-11 17-11 27 0 11 4 20 11 27 8 8 17 12 28 12z m181-7c-8 4-18 6-28 6-16 0-28-4-34-13-4-5-6-12-7-21l24 0c0 5 2 7 3 9 3 3 7 5 13 5 5 0 9-1 12-2 3-2 4-5 4-8 0-4-2-6-5-8l-19-3c-8-1-15-3-21-6-9-5-13-14-13-26 0-9 3-16 8-21 5-4 12-7 20-7 13 0 24 4 31 10l0-10 24 0 0 71c0 12-4 20-12 24z m-13-55c0-9-3-15-7-18-5-3-10-5-15-5-4 0-6 1-9 3-2 2-3 5-3 10 0 4 2 8 6 11 2 1 6 2 11 3l12 3 5 2z m-96 86l24 0 0-126-24 0z m186-26l-9-2c-6-3-12-7-17-14l0 12-23 0 0-96 24 0 0 46c0 8 1 14 3 17 1 4 5 7 8 9 4 3 9 5 13 5l8-1 0 24z m98 12l58 58 15-15-58-58z m-47 71l22 0 0-63-22 0z m73-110l64 0 0-21-64 0z"/>
<glyph glyph-name="autentia" unicode="&#68;" d="M263 511c-145 3-262-114-262-256-1-139 112-253 250-256 144-3 259 111 262 250 3 144-112 259-250 262z m115-424c-4 0-8 0-13 0-11 0-23 0-34 0-3 0-4 1-5 4-2 10-4 19-6 30-4-4-7-6-10-10-22-22-48-32-79-31-48 2-88 31-94 86-4 32 4 62 26 87 13 15 31 23 51 28 23 5 46 9 69 13 9 1 18 1 27 1 3 0 7 0 11 0 0 17 1 32-3 48-7 23-23 35-48 38-28 3-53-4-77-17-7-3-14-7-22-11-1 14-3 27-4 40 0 6 3 11 9 14 27 15 55 24 86 23 29-1 56-11 79-29 20-15 30-35 30-59 2-63 4-126 5-189 1-19 2-39 2-58 0-3 0-5 0-8z m-99 166c12-1 21-2 29-3 5 0 7-3 8-7 1-12 2-23 2-35-1-13-3-25-5-38-1-5-3-11-7-14-17-20-39-32-66-29-30 3-44 23-46 49-2 35 15 58 52 71 12 3 24 4 33 6z"/>
<glyph glyph-name="club" unicode="&#69;" d="M141 425c0 36 29 66 65 66 36 0 66-30 66-66 0-36-30-66-66-66-36 0-65 30-65 66z m97-110c0 14 5 27 13 38-5 1-11 2-17 2l-56 0c-6 0-11-1-17-2 9-12 14-26 14-41 10 5 22 9 34 9 10 0 20-3 29-6z m11-6c19-12 32-32 35-56 7-4 16-6 25-6 34 0 61 27 61 61 0 33-27 60-61 60-33 0-60-26-60-59z m-40-124c34 0 61 27 61 60 0 34-27 61-61 61-33 0-60-27-60-61 0-33 27-60 60-60z m26-4l-51 0c-43 0-78-35-78-78l0-62 0-1 5-2c40-12 76-17 105-17 57 0 90 17 92 18l4 2 0 0 0 62c0 43-34 78-77 78z m100 62l-51 0c-1-20-9-38-23-52 38-11 66-46 66-88l0-19c50 2 79 16 81 17l4 2 0 0 0 63c0 42-34 77-77 77z m14 127c19-12 32-33 34-56 8-4 17-6 26-6 33 0 60 27 60 61 0 33-27 60-60 60-33 0-60-26-60-59z m86-66l-51 0c-1-20-10-39-23-52 38-11 65-46 65-88l0-19c51 2 80 16 82 17l4 2 0 0 0 63c0 42-35 77-77 77z m-332-57c12 0 23 4 32 10 3 19 14 36 28 47 0 2 1 3 1 4 0 33-28 60-61 60-33 0-60-27-60-60 0-34 27-61 60-61z m54-56c-13 13-22 32-23 52-1 0-3 0-5 0l-52 0c-42 0-77-35-77-77l0-63 0-1 4-1c33-11 62-15 88-17l0 19c0 42 27 77 65 88z"/>
<glyph glyph-name="terminal" unicode="&#70;" d="M185 231l-133-133c-2-2-4-3-6-3-3 0-5 1-7 3l-14 14c-2 2-3 4-3 7 0 2 1 5 3 6l112 113-112 112c-2 2-3 4-3 7 0 2 1 4 3 6l14 14c2 2 4 3 7 3 2 0 4-1 6-3l133-133c2-2 3-4 3-6 0-3-1-5-3-7z m309-130l0-19c0-2-1-5-3-6-2-2-4-3-6-3l-275 0c-2 0-5 1-6 3-2 1-3 4-3 6l0 19c0 2 1 4 3 6 1 2 4 3 6 3l275 0c2 0 4-1 6-3 2-2 3-4 3-6z"/>
<glyph glyph-name="printo" unicode="&#71;" d="M421 406l-11 0 0 94c0 7-5 12-12 12l-284 0c-6 0-12-5-12-12l0-94-10 0c-41 0-74-33-74-74l0-151c0-41 33-74 74-74l10 0 0-95c0-7 6-12 12-12l284 0c7 0 12 5 12 12l0 95 11 0c40 0 73 33 73 74l0 151c0 41-33 74-73 74z m-294 82l259 0 0-82-259 0z m259-464l-259 0 0 151 259 0z m84 157c0-27-22-49-49-49l-11 0 0 43 27 0c7 0 12 6 12 12 0 7-5 13-12 13l-358 0c-6 0-12-6-12-13 0-6 6-12 12-12l23 0 0-43-10 0c-27 0-49 22-49 49l0 151c0 27 22 49 49 49l329 0c27 0 49-22 49-49l0-151z m-72 152c-9 0-17-8-17-17 0-9 8-17 17-17 9 0 17 8 17 17 0 9-8 17-17 17z m-243-200l202 0c7 0 12 5 12 12 0 7-5 12-12 12l-202 0c-7 0-12-5-12-12 0-7 5-12 12-12z m0-46l202 0c7 0 12 6 12 13 0 6-5 12-12 12l-202 0c-7 0-12-6-12-12 0-7 5-13 12-13z"/>
<glyph glyph-name="libro" unicode="&#72;" d="M510 401c0 3 0 4-1 6-1 1-2 2-3 3-73 54-176 83-249 16-72 67-176 38-248-16-2-1-3-2-3-3-1-2-2-3-2-6 2-89-1-179-1-269 0-2 0-3 1-4-2-7 3-14 11-11 77 29 163 36 233-12 2-4 5-7 9-6 4-1 8 2 9 6 70 48 157 41 234 12 7-3 12 4 11 11 0 1 0 2 0 4 0 90-2 180-1 269z m-253-280c-70 48-157 46-235 18 0 86 3 173 1 259 66 48 162 76 227 9 2-2 5-3 7-3 3 0 5 1 8 3 65 67 160 39 227-9-2-86 0-173 1-259-78 28-166 30-236-18z m247-19c-80 32-191 44-249-25-58 69-169 57-249 25-14-5-2-24 12-19 72 29 179 42 227-30 2-4 6-6 10-5 4-1 8 1 11 5 47 72 154 59 226 30 14-5 26 14 12 19z m-450 215c2-4 7-7 12-3 12 8 26 14 40 17 5 1 7 5 6 8 0 1 1 2 1 2l0 47c0 6-5 9-9 8-1 1-2 1-3 1-16-1-33-5-46-15-3-2-4-5-4-8 0 0-1-1-1-2-1-16-1-31-1-47 0-4 2-7 5-8z m13 53c9 6 18 9 29 10l0-35c-11-2-21-7-30-12 0 12 0 25 1 37z m78 8c20 7 40 5 59-6 9-6 17 8 8 14-22 13-47 16-71 8-10-4-6-20 4-16z m-1-36c20 4 39 1 57-10 9-6 17 8 8 14-21 14-45 17-70 12-10-2-6-18 5-16z m74-49c-56 31-121 19-172-15-9-6 0-20 9-14 46 31 104 43 154 15 9-5 18 9 9 14z m0-38c-56 31-121 19-172-15-9-6 0-21 9-15 46 31 104 44 154 15 9-5 18 10 9 15z m0-39c-56 31-121 19-172-15-9-6 0-20 9-14 46 30 104 43 154 15 9-5 18 9 9 14z m72 57c48 32 107 24 155-3 10-5 17 10 8 15-54 30-120 37-172 1-9-6 0-19 9-13z m3-39c48 32 107 25 156-2 9-5 16 10 7 15-54 30-120 36-172 1-9-6 0-20 9-14z m-3 116c48 32 107 25 155-2 10-6 17 9 8 15-54 29-120 36-172 0-9-6 0-19 9-13z m-6-25c-9-6 0-20 9-14 48 33 107 25 156-2 9-5 16 10 7 15-54 30-120 37-172 1z m175-117c-54 30-119 37-172 1-9-6 1-19 10-13 47 32 106 24 155-3 9-5 16 10 7 15z"/>
<glyph glyph-name="fix" unicode="&#73;" d="M442 342l-55 12-20 53 65 75c-33 6-68-5-91-32-26-30-30-72-14-105-1 0-1-1-1-1l-61-71 54-58 67 77c0 1 0 1 0 1 36-10 76 0 102 30 23 27 29 63 18 94z m-332-249c-13-15-12-38 4-52l4-3c15-13 38-12 52 4l84 97-54 59z m202 114l-54 59-71 77c0 0-1 0-1 1 1 1 1 3 2 5 1 1 1 3 2 5 10 32 3 68-21 94-25 26-60 36-92 29l67-73-18-53-55-14-67 73c-9-31-3-67 22-93 24-27 59-37 92-29 2 0 4 0 5 1 2 0 4 1 5 1 1 0 1 0 1-1l77-84 54-58 93-101c7-8 17-12 27-12 9 0 18 3 25 10l4 3c15 14 16 38 2 53z"/>
<glyph glyph-name="docs" unicode="&#74;" d="M418 512l-385 0 0-460 385 0z m-23-437c-21 0-318 0-339 0 0 22 0 393 0 414 21 0 318 0 339 0 0-22 0-392 0-414z m-299 362l264 0 0-24-264 0z m0-76l264 0 0-25-264 0z m338 99l0-23 22 0 0-414-339 0 0 16-23 0 0-39 385 0 0 460z m-328-279c5 0 9 1 13 3l33-27c0-1-1-3-1-4 0-16 13-29 29-29 16 0 29 13 29 29 0 5-1 9-3 13 16 24 36 54 48 72 2 0 4-1 6-1 7 0 13 3 18 7 11-6 25-15 37-22 0 0 0 0 0-1 0-16 13-29 29-29 16 0 29 13 29 29 0 16-13 29-29 29-7 0-14-3-19-7l-37 22c0 0 1 0 1 1 0 16-13 29-29 29-16 0-29-13-29-29 0-5 2-10 4-14-15-23-35-53-47-72-3 1-5 2-8 2-6 0-11-2-16-5-9 7-20 16-30 25 0 2 1 5 1 8 0 16-13 28-29 28-16 0-29-12-29-28 0-16 13-29 29-29z"/>
<glyph glyph-name="proced" unicode="&#75;" d="M0 251l140-84 140 84-140 83z m131 151l0-37-18 0 25-26 26 26-18 0 0 37z m0-242l0-36-18 0 25-26 26 26-18 0 0 36z m207 97l-53 0 0-15 53 0 0-19 26 26-26 26z m-307-250l160 0 40 80-159 0z m443 289l-59 0c-25 0-45-20-45-45 0-25 20-45 45-45l59 0c25 0 45 20 45 45 0 25-20 45-45 45z m-378 113l92 0c25 0 45 20 45 45 0 24-20 44-45 44l-92 0c-24 0-45-20-45-44 0-25 21-45 45-45z"/>
<glyph glyph-name="receive" unicode="&#76;" d="M428 497l-344 0c-46 0-84-37-84-83 0-47 38-84 84-84l1 0 0-264c0-7 2-13 7-18l26-26c8-7 20-7 28 0l16 16 16-16c8-7 21-7 28 0l16 16 17-16c7-7 20-7 28 0l16 16 17-17c8-8 21-8 28 0l18 17 18-18c4-3 9-5 14-5 5 0 10 2 14 5l28 28c5 5 7 11 7 18l0 264 1 0c46 0 84 37 84 84 0 46-38 83-84 83z m-35-428l-12-12c-1 0-2-1-3-1-1 0-2 1-3 1l-15 16c-4 3-9 5-14 5-5 0-10-2-14-6l-15-14c-1-1-2-2-3-2-1 0-2 1-2 2l-15 15c-8 7-21 7-28-1l-14-13c-1-1-4-1-5 0l-14 14c-7 7-20 7-28-1l-13-13c-1-1-2-1-3-1-1 0-2 0-2 1l-14 14c-7 7-20 7-28-1l-13-13c-1-1-2-1-3-1-1 0-2 0-3 1l-10 10 0 318 274 0z m35 312l-1 0 0 10c0 17-13 30-30 30l-282 0c-17 0-30-13-30-30l0-10-1 0c-18 0-33 15-33 33 0 18 15 32 33 32l344 0c18 0 33-14 33-32 0-18-15-33-33-33z m-260-71l101 0c9 0 17 8 17 17 0 9-8 17-17 17l-101 0c-9 0-17-8-17-17 0-9 8-17 17-17z m0-68l169 0c9 0 17 7 17 17 0 9-8 17-17 17l-169 0c-9 0-17-8-17-17 0-10 8-17 17-17z m0-69l169 0c9 0 17 8 17 18 0 9-8 17-17 17l-169 0c-9 0-17-8-17-17 0-10 8-18 17-18z"/>
<glyph glyph-name="sharedfolder" unicode="&#77;" d="M504 347c-6 6-14 10-23 11l0 69c0 33-28 61-61 61l-99 0c-33 0-50-14-63-24-10-9-16-13-30-13l-143 0c-29 0-54-24-54-53l0-40c-9-1-17-5-23-11-6-8-9-17-8-27l40-267c2-17 16-29 33-29l366 0c17 0 31 12 33 29l40 267c1 10-2 19-8 27z m-139-148c-7 0-13 2-18 5l-31-26c3-5 5-11 5-17 0-20-16-36-36-36-20 0-36 16-36 36 0 10 5 20 12 26l-13 28c-2 0-4-1-7-1-8 0-16 3-22 8l-37-21c1-3 1-6 1-9 0-19-16-35-36-35-19 0-35 16-35 35 0 20 16 36 35 36 10 0 19-4 25-10l36 19c-2 4-2 9-2 13 0 20 16 36 35 36 20 0 36-16 36-36 0-10-5-20-12-26l13-28c2 0 5 1 7 1 7 0 13-2 18-5l31 25c-3 6-5 12-5 18 0 20 16 36 36 36 19 0 35-16 35-36 0-20-16-36-35-36z m76 159l-370 0 0 40c0 8 7 13 14 13l143 0c27 0 43 12 55 22 11 8 19 15 38 15l99 0c12 0 21-10 21-21z"/>
<glyph glyph-name="perfil" unicode="&#78;" d="M254 512c-140 0-254-114-254-254 0-140 114-254 254-254 140 0 254 114 254 254 0 140-114 254-254 254z m147-394c0 6 0 10 0 10 0 34-40 47-62 56-7 3-22 11-37 18-5 2-10 9-10 15l-2 16c12 11 22 26 24 42l2 0c4 0 8 3 9 7l4 25c0 6-5 9-9 9 0 0 0 1 0 1 1 3 1 6 1 9 1 2 1 5 1 7 0 12-2 22-5 28-3 8-8 16-15 23-20 19-43 26-63 11-13 2-29-4-41-17-6-8-10-16-12-24-1-5-2-12-2-18-1-8 0-15 2-20-4-1-8-4-8-9l4-25c0-4 4-7 8-7l3 0c3-18 13-32 23-43l-1-16c-1-5-5-12-10-14-15-7-29-14-38-18-20-8-61-22-61-56l0-8c-34 36-55 84-55 138 0 112 91 203 203 203 112 0 203-91 203-203 0-55-21-104-56-140z m0 0"/>
<glyph glyph-name="doble" unicode="&#79;" d="M512 31c0 0-1 97-7 107-9 15-29 25-67 41-38 16-50 29-50 58 0 17 11 11 16 43 2 13 13 0 15 30 0 12-6 15-6 15 0 0 3 17 4 31 1 17-9 60-61 60-53 0-63-43-62-60 2-14 4-31 4-31 0 0-5-3-5-15 2-30 12-17 14-30 5-32 17-26 17-43 0-20-6-32-21-43 83-42 94-50 94-87l0-76z m-250 133c-51 22-67 39-67 78 0 23 15 15 22 57 3 18 17 0 19 40 0 16-7 20-7 20 0 0 4 24 5 42 2 22-11 80-82 80-70 0-83-58-81-80 1-18 5-42 5-42 0 0-7-4-7-20 2-40 16-22 19-40 7-42 22-34 22-57 0-39-16-56-67-78-15-6-43-16-43-40l0-93 356 0c0 0 0 55 0 70 0 22-43 42-94 63z m0 0"/>
<glyph glyph-name="tecnico" unicode="&#80;" d="M256 232c34 0 115 41 115 140 0 14-1 27-2 40-2 24-7 46-19 63-16 23-45 37-94 37-49 0-78-14-94-37-12-17-17-39-19-63-1-13-2-26-2-40 0-99 81-140 115-140z m37 229c-3-9-5-13-8-21-21 6-37 6-58 0-3 8-5 12-8 21 27 8 47 8 74 0z m-135-68c2-2 7-14 16-15 10-1 27 36 82 36 55 0 72-37 82-36 9 1 14 13 16 15 0-7 0-14 0-21 0-48-21-78-39-95-23-21-48-28-59-28-11 0-36 7-59 28-18 17-39 47-39 95 0 7 0 14 0 21z m311-304c-6 36-18 83-42 100-17 11-74 42-99 55l0 0c-3 2-7 1-9-1-13-10-27-16-42-20-3 0-5-2-6-5l-15-40-15 40c-1 3-3 5-6 5-15 4-29 10-42 20-2 2-6 3-9 1-24-13-82-44-99-55-28-19-40-87-42-100 0-2 0-3 0-4 1-2 10-26 56-45 3 3 6 6 10 7-5 2-9 6-12 10-4 7-4 16 0 23 12 21 34 35 59 35 23 0 44-12 56-30l88 0c2 3 5 7 8 10 13 13 30 20 48 20l0 0c24 0 47-14 59-35 4-7 4-16 0-23-3-4-7-8-12-9 4-2 7-4 10-8 46 19 55 43 56 45 0 1 0 2 0 4z m-74-60l0 0-42 0c-1 2-3 7-3 18 0 12 2 17 3 19l42 0c1 0 2 1 2 1 1 1 1 2 0 3-8 15-24 25-41 25-13 0-25-5-34-14-4-5-8-10-10-16l-112 0c-7 18-24 30-44 30-17 0-33-10-42-25 0-1 0-2 1-3 0-1 1-1 2-1l0 0 42 0c1-2 3-7 3-19 0-11-2-16-3-18l-42 0c-1 0-2-1-2-2-1 0-1-2 0-2 8-16 24-25 41-25l0 0c13 0 25 5 34 14 4 5 8 10 10 16l112 0c7-18 24-30 44-30 0 0 0 0 0 0 17 0 33 10 42 25 0 1 0 2-1 3 0 0-1 1-2 1z"/>
<glyph glyph-name="store" unicode="&#81;" d="M502 333l-48 64c-1 2-4 4-6 7l0 76c0 18-14 32-32 32l-320 0c-18 0-32-14-32-32l0-76c-2-3-5-5-6-7l-48-64c-7-8-10-19-10-29l0-16c0-26 22-48 48-48l0-208c0-18 14-32 32-32l352 0c18 0 32 14 32 32l0 208c26 0 48 22 48 48l0 16c0 10-3 21-10 29z m-86 147l0-64-320 0 0 64z m-253-208l-67 0 64 112 35 0z m49 112l36 0 0-112-68 0z m52 0l36 0 32-112-68 0z m53 0l35 0 64-112-67 0z m-285-96l0 16c0 3 1 7 3 10l48 64c3 4 8 6 13 6l46 0-64-112-30 0c-9 0-16 7-16 16z m288-256l-120 0 0 160 120 0z m112 0l-96 0 0 160c0 9-7 16-16 16l-120 0c-9 0-16-7-16-16l0-160-104 0 0 208 352 0z m48 256c0-9-7-16-16-16l-30 0-64 112 46 0c5 0 10-2 13-6l48-64c2-3 3-7 3-10z"/>
<glyph glyph-name="firma" unicode="&#82;" d="M491 49c0 0-1 0-2 0l-138-18c-7-1-12 7-8 13 2 3 4 6 6 10 5 8-2 20-12 20 0 0-1 0-2-1l-181-27-21-3-59-9c-7-1-11-6-11-13 1-3 2-6 4-8 2-3 5-4 9-4 0 0 1 0 2 0l215 32c8 1 13-7 8-13-1-2-2-4-4-6-4-5-3-14 2-18 2-3 5-4 8-4 0 0 1 0 1 0l0 0 186 24 0 0c3 0 6 2 8 5 2 3 3 7 2 11-2 5-6 9-13 9z m-465-13c-2-2 1-5 4-4 30 17 60 24 77 26 6 1 11 5 12 11 8 35 58 117 58 117l-67 49c0 0-63-72-94-90-6-3-8-9-7-15 3-16 5-47-1-80-1-3 3-5 5-2l81 110c3 4 8 4 12 1l1 0c3-3 4-8 1-12z m92 214l71-52c6-5 14-4 19 3 14 19 47 56 87 67l97 134c4 6 3 15-3 20l-119 87c-6 5-15 4-20-3l-96-133c1-42-25-84-39-104-4-6-3-15 3-19z"/>
<glyph glyph-name="kiosko" unicode="&#83;" d="M488 434c0 34-8 42-43 42-122 0-243 0-365 0-35 0-44-8-44-43 0-62 0-123 0-185 0-61 0-122 0-184 0-33 5-38 38-38 124 0 248 0 371 0 33 0 43 9 43 42 0 122 0 244 0 366z m-379-31c101 0 202 0 304 0 0-74 0-147 0-223-101 0-202 0-304 0 0 74 0 148 0 223z m120-298c-15-9-27-18-41-22-12-3-26-3-38 0-14 4-26 13-41 21 0 4 0 13 0 23 40 0 80 0 120 0 0-10 0-18 0-22z m64-6c0 10 0 18 0 28 40 0 79 0 121 0 0-9 0-18 1-28-41 0-81 0-122 0z"/>
<glyph glyph-name="directory" unicode="&#84;" d="M512 71l0 331c0 10-8 18-18 18l-234 0c-7 1-13 14-13 19l0 2c0 11-9 20-20 20l-124 0c-11 0-20-9-20-20l0-2c0-5-5-19-13-19l1 0c-10 0-19-8-19-18l0-96-39 0c0 0-18 1-12-20l42-215c0-11 8-20 19-20l441 0c11 0 9 20 9 20z m-179 26l-27-26c-11-11-29-11-40 0l-26 25c-11 11-11 29 0 40l27 26c11 11 30 11 41 0l-16-16c-5 2-11 0-15-4l-16-16c-6-6-6-15 0-20l15-15c6-6 15-6 20 0l17 16c3 4 5 10 4 14l16 16c11-11 11-29 0-40z m12 90c4 4 10 4 14 0 4-4 4-10 0-13l-46-46c-3-3-9-3-13 0-4 4-4 10 0 14z m73-6l-28-27c-11-11-28-11-39 0l15 15c5-1 11 1 15 4l17 17c6 6 6 15 0 20l-15 15c-5 5-14 5-20 0l-17-17c-4-4-6-10-5-14l-15-16c-11 11-11 29 0 40l27 26c11 11 29 11 40 0l25-24c11-11 11-29 0-39z m71 97l0-216-42 232c-3 13-18 12-18 12l-354 0 0 73 414 0z"/>
<glyph glyph-name="organization" unicode="&#85;" d="M331 381l113 0c5 0 9 4 9 9l0 113c0 5-4 9-9 9l-113 0c-5 0-9-4-9-9l0-42-198 0c-7 0-14-7-14-14l0-122-42 0c-5 0-9-4-9-9l0-113c0-5 4-9 9-9l42 0 0-122c0-7 7-14 14-14l198 0 0-49c0-5 4-9 9-9l113 0c5 0 9 4 9 9l0 113c0 5-4 9-9 9l-113 0c-5 0-9-4-9-9l0-35-183 0 0 107 42 0c5 0 9 4 9 9l0 42 132 0 0-42c0-5 4-9 9-9l113 0c5 0 9 4 9 9l0 113c0 5-4 9-9 9l-113 0c-5 0-9-4-9-9l0-42-132 0 0 42c0 5-4 9-9 9l-42 0 0 108 183 0 0-43c0-5 4-9 9-9z"/>
<glyph glyph-name="close" unicode="&#86;" d="M512 496l-16 16-240-240-240 240-16-16 240-240-240-240 16-16 240 240 240-240 16 16-240 240z"/>
<glyph glyph-name="copy" unicode="&#87;" d="M442 400l-77 0 0 93c0 11-8 19-19 19l-153 0c-5 0-9-2-13-5l-123-113c-4-4-6-9-6-14l0-248c0-11 8-19 18-19l77 0 0-94c0-10 9-18 19-18l277 0c10 0 19 8 19 18l0 362c0 10-9 19-19 19z m-263 55l0-70-76 0z m-91-304l0 197 110 0c10 0 18 8 18 19l0 108 111 0 0-75-38 0c-5 0-9-2-13-5l-124-114c-3-3-6-8-6-13l0-117z m187 191l0-69-76 0z m148-304l-239 0 0 197 109 0c11 0 19 9 19 19l0 108 111 0z"/>
<glyph glyph-name="headset" unicode="&#88;" d="M50 232l1 0 0-4-1 0z m0-1c-1-4 1-1 0 0m1-7l69 0 0-24-69 0z m54-4c-1-1-2-2-3-3 4-3 12-21 18-16-4 7-9 13-15 19m-48 3c-4-2-6-4-5-6 6 2 8 4 5 6m78 83c-2-14 2-11 13-18 10-6 19-14 26-23 18-23 27-51 30-80 6-48-18-139-86-116 65-36 100 40 100 93-1 50-24 135-83 144m68-112c7-44-3-119-59-128-55-8-88 60-95 104-7 44 4 119 59 127 55 9 88-59 95-103m-83 7c-3-2-3-1-5 0 17-30 25-89-9-111 44 11 29 84 14 111m-68 16c-4-6 0 0 0 0m-16-65c6-30 29-73 65-72 42 1 46 60 40 90-7 30-29 73-65 72-42-2-46-60-40-90m9 1c-6 25-5 73 28 79 33 6 54-38 59-64 5-24 5-73-28-78-33-6-54 38-59 63m82 11c4-25 1-73-32-78-33-6-52 39-56 64-4 26 0 74 33 79 33 5 51-40 55-65m353-134c-2-36-61-20-84-25-18-3-37-6-56-5-23 1-38 10-57 22-41 24-82 49-123 73-18 11-56 25-67 46-12 23 20 22 33 14 10-7 21-14 32-21 44-27 87-54 131-81 36-21 75-15 114-5 13 3 24 12 38 14 23 4 40-8 39-32m-433 207c0-4 0-7 1-10 4 4 2 4-1 10m4-7c0-1 0 0 0 0m80 23c-4-6-9-13-12-19-1-2-3-3-4-5-5-7 6-14 10-20 8 12 9 30 6 44m-19-28c-2-2-4-4-7-5 6-6 11-12 15-19 9 10 0 17-8 24m-61 5c-4-4-1-8 1-13 6 9 4 5-1 13m7-8c-14-11 17-37 29-40 11-3 28 18 28 19-3 4-5 8-8 12-7 7-8 2-17 0-11-1-24 1-32 9m285 172c1-16 1-32 6-47-3 15-3 31-6 47m-30 64c24-18 31-35 36-64 3-20-2-56 18-68 56-37 66 66 56 96 4-24 1-49-5-72 6-1-1 57-2 61-14 33-72 45-103 47m93-31c-87 52-197 35-253-51-19-29-25-67-21-101 3-30-27-64-58-58-20 3-29 29-33 46-8 34-8 72 0 106 11 47 43 83 85 107 78 43 187 49 261-5 13-9 28-21 32-37 4-12-5-12-13-7m-289-60c-14-41-13-95-4-136 25 29 15 58 21 94 8 42 33 76 68 100 46 33 103 41 156 24 27-9 55-20 61-50 3-15 3-34-1-49 6 22 8 45 5 68-3 22-18 26-37 36-29 14-62 19-93 19-72-1-149-34-176-106m303 72c0 1 0 0 0 0m-336-220c-56 0-48 104-42 138 9 52 42 92 88 117 46 24 100 35 152 32 45-3 110-24 133-68 14-28 26-118-29-118-31 0-33 29-34 52-2 29-6 63-32 80-41 26-107-10-139-40-19-16-36-38-44-62-9-27-8-54-8-81 0-21-24-50-45-50m178 293c-102 0-211-51-227-161-5-36-11-132 44-138 18-2 32 8 42 23 16 25 11 43 14 70 9 82 75 145 160 149 22 1 39-19 44-40 7-26 0-66 17-88 19-23 53-12 66 11 11 18 13 45 11 65-10 78-104 109-171 109m37-29c-59 0-120-21-158-68-17-22-29-49-34-76-2-11-11-76 2-80-6 73 6 144 72 184 29 17 62 27 96 29 6 1 78 1 77 6-1 7-51 5-55 5m-10-10c-49-2-101-17-137-53-44-42-48-103-43-161 3-1 6 59 7 65 4 26 14 52 30 74 33 46 87 71 143 75"/>
<glyph glyph-name="paste" unicode="&#89;" d="M477 318l-72 72c-2 2-5 3-7 3l-24 0 0 69c0 6-5 10-10 10l-117 0 0 3c0 20-17 37-38 37l-12 0c-20 0-37-17-37-37l0-3-117 0c-6 0-11-4-11-10l0-394c0-5 5-10 11-10l149 0 0-48c0-5 4-10 10-10l267 0c6 0 11 5 11 10l0 301c0 3-1 5-3 7z m-69 40l37-37-37 0z m-260 94l48 0c5 0 10 4 10 10 0 6-5 10-10 10l-16 0 0 3c0 9 8 17 17 17l12 0c10 0 17-8 17-17l0-13c0-6 5-10 10-10l23 0 0-21-111 0z m54-59c-6 0-10-5-10-10l0-304-139 0 0 373 74 0 0-31c0-5 5-10 10-10l132 0c6 0 10 5 10 10l0 31 75 0 0-59z m257-373l-247 0 0 352 175 0 0-61c0-6 5-10 11-10l61 0z m-210 233l128 0c5 0 10 5 10 11 0 5-5 10-10 10l-128 0c-6 0-10-5-10-10 0-6 4-11 10-11z m174-30l-174 0c-6 0-10-5-10-10 0-6 4-11 10-11l174 0c5 0 10 5 10 11 0 5-5 10-10 10z m0-51l-174 0c-6 0-10-5-10-10 0-6 4-11 10-11l174 0c5 0 10 5 10 11 0 5-5 10-10 10z m0-51l-174 0c-6 0-10-5-10-10 0-6 4-11 10-11l174 0c5 0 10 5 10 11 0 5-5 10-10 10z m-17 132l17 0c5 0 10 5 10 11 0 5-5 10-10 10l-17 0c-6 0-11-5-11-10 0-6 5-11 11-11z"/>
<glyph glyph-name="reasignar" unicode="&#90;" d="M448 96c0-18-14-32-32-32l-320 0c-18 0-32 14-32 32l0 320c0 18 14 32 32 32l96 0 107 64-235 0c-35 0-64-29-64-64l0-384c0-35 29-64 64-64l384 0c35 0 64 29 64 64l0 264-64-48z m-97 353c0-3 0-2 0 0-16 1-215-15-223-260 2-12 43 162 224 198 0-3 0-67 0-67l160 96-160 96c1 0-1-51-1-63 1 0 2 0 0 0z m-223-248c0-5 0-9 0-9 0 3 0 6 0 9z"/>
<glyph glyph-name="comandos" unicode="&#48;" d="M475 475l-438 0c-21 0-37-16-37-36l0-366c0-20 16-36 37-36l438 0c21 0 37 16 37 36l0 366c0 20-16 36-37 36z m-300-27c10 0 18-8 18-18 0-10-8-19-18-19-10 0-18 9-18 19 0 10 8 18 18 18z m-56 0c10 0 18-8 18-18 0-10-8-19-18-19-10 0-18 9-18 19 0 10 8 18 18 18z m-55 0c10 0 18-8 18-18 0-10-8-19-18-19-10 0-18 9-18 19 0 10 8 18 18 18z m411-375l-438 0 0 311 438 0c0 0 0-311 0-311z m-197 147l-168-87 0 25 142 71 0 1-142 71 0 25 168-86z m124 23l0-23-89 0 0 23z"/>
<glyph glyph-name="outlook" unicode="&#49;" d="M512 323c0 9-7 17-15 17l-147 0 0-34 116 0-76-63-40 33 0-44 32-25c5-4 12-4 17 0l83 67 0-89-132 0 0-34 147 0c8 0 15 7 15 17l0 139c0 1 0 1 0 2 0 0 0 0 0 1 0 0 0 13 0 13z m-352-137c21 0 35 28 35 70 0 35-10 71-35 71-27 0-36-36-36-71 0-40 12-70 36-70z m-160-143l319-23 0 472-319-28z m161 335c55 0 91-49 91-119 0-86-46-125-94-125-51 0-91 45-91 120 0 76 37 124 94 124z"/>
<glyph glyph-name="ad" unicode="&#50;" d="M193 355l126 0c6 0 12 5 12 11l0 72c0 6-6 12-12 12l-126 0c-6 0-12-6-12-12l0-72c0-6 6-11 12-11z m12 71l102 0 0-48-102 0z m114-269l-126 0c-6 0-12-5-12-11l0-72c0-6 6-12 12-12l126 0c6 0 12 6 12 12l0 72c0 6-6 11-12 11z m-12-71l-102 0 0 48 102 0z m193 71l-126 0c-6 0-11-5-11-11l0-72c0-6 5-12 11-12l126 0c7 0 12 6 12 12l0 72c0 6-5 11-12 11z m-11-71l-103 0 0 48 103 0z m-351 71l-126 0c-7 0-12-5-12-11l0-72c0-6 5-12 12-12l126 0c6 0 11 6 11 12l0 72c0 6-5 11-11 11z m-12-71l-103 0 0 48 103 0z m118 136l0-41c0-7 6-12 12-12 6 0 12 5 12 12l0 41c0 6-6 11-12 11-6 0-12-5-12-11z m-169-53c6 0 11 5 11 12l0 63 340 0 0-63c0-7 5-12 11-12 7 0 12 5 12 12l0 75c0 6-5 12-12 12l-169 0 0 63c0 7-6 12-12 12-6 0-12-5-12-12l0-63-169 0c-7 0-12-6-12-12l0-75c0-7 5-12 12-12z"/>
<glyph glyph-name="windows" unicode="&#51;" d="M105 464c32 13 60 19 86 20 14 0 26-2 39-5 18-5 44-18 53-24l-46-158c-24 15-52 30-91 30-25 0-53-6-86-18z m72-379c12 39 39 132 47 160-6 4-12 8-18 11-24 12-47 18-69 18-3 0-6 0-9 0-28-2-53-10-70-15-4-2-8-4-13-5l-45-155c31 11 58 16 83 16 41 0 70-14 94-30z m274 116c-30-10-58-15-84-15-48 0-82 16-103 31l-45-157c13-7 59-32 93-32 28 0 59 8 96 22z m61 211c-29-11-58-17-86-17-45 0-79 16-101 31l-46-158c31-20 64-30 99-30 29 0 58 7 88 20l0 1 2 1z"/>
<glyph glyph-name="seh" unicode="&#52;" d="M169 401c17-2 36-10 50-22-3 10-3 20-1 25 1 4 2 8 1 12-3 15-18 27-36 27-17 0-29-12-26-27 0 0 0-1 0-1 0 0-13-3-26-14-1 0-2-2-4-5 11 4 25 6 42 5z m333-175c-1 2-1 3-2 4-1 2-11 16-22 31 0 0-41 62-71 104-7 7-26 26-65 22-22-3-47-16-55-36-2-7-3-13-4-13-2 0-5 9-11 15-4 4-10 7-16 7-6 0-12-3-16-7-6-6-11-15-13-15 0 0-1 4-2 9-6 23-34 37-57 40-38 4-57-14-64-22-30-41-72-104-72-104-11-15-21-29-22-31 0-1-1-3-1-4-6-13-9-28-9-43 0-62 48-112 110-112 62 0 110 50 110 112l0 18c0 9 8 23 16 26 5 2 12 3 18 3 6 0 14-1 19-3 9-3 17-17 17-26 0-10 0-18 0-18 0-62 48-112 110-112 62 0 110 50 110 112 0 15-3 30-8 43z m-389-124c-45 0-81 37-81 81 0 45 36 81 81 81 44 0 81-36 81-81 0-44-37-81-81-81z m142 163c-17 0-31 12-22 21 6 5 13 9 22 9 8 0 16-4 21-9 9-9-5-21-21-21z m146-158c-43 0-78 35-78 78 0 43 35 78 78 78 43 0 78-35 78-78 0-43-35-78-78-78z m-110 273c14 11 33 19 50 21 17 1 31-1 42-5-2 3-4 5-5 6-12 10-25 13-25 13 0 0 0 1 0 1 3 15-9 27-26 27-17 0-34-12-36-27-1-4-1-8 1-12 2-5 2-15-1-24z"/>
<glyph glyph-name="java" unicode="&#53;" d="M245 237c0 0-28 55-27 95 1 29 65 57 91 99 25 41-3 81-3 81 0 0 6-30-11-60-17-31-79-49-104-102-24-53 54-113 54-113z m107 167c0 0-97-37-97-79 0-42 26-56 31-70 4-14-8-37-8-37 0 0 38 26 32 57-6 31-36 40-19 71 11 21 61 58 61 58z m-117-223c90 3 122 32 122 32-58-16-212-15-213-3-1 11 47 21 47 21 0 0-76 0-82-19-6-19 36-34 126-31z m130-44c0 0 88 18 79 66-10 58-72 26-72 26 0 0 44 0 48-27 4-26-55-65-55-65z m-43 25c0 0-23-6-56-10-44-4-97-1-101 7-4 7 7 11 7 11-53-12-24-34 38-39 54-3 133 16 133 16z m-137-46c0 0-24-1-25-14-2-12 14-24 74-27 59-4 101 16 101 16l-27 16c0 0-17-3-43-7-26-3-80 3-82 8-2 5 2 8 2 8z m231-57c9 10-3 17-3 17 0 0 4-5-2-10-5-6-57-20-139-24-83-4-172 8-175 18-3 11 46 19 46 19-6-1-73-2-76-20-2-19 30-33 157-33 127 0 182 23 192 33z m-50-42c-55-11-225-4-225-4 0 0 110-26 236-4 60 10 63 39 63 39 0 0-18-20-74-31z"/>
<glyph glyph-name="office2010" unicode="&#54;" d="M508 310c-23 93-81 156-171 187-15 6-31 7-46 11-3 0-6 1-9 2-16 0-32 0-48 0-11-2-23-4-34-7-92-23-153-80-185-169-5-15-7-32-11-47 0-3-1-6-2-9 0-16 0-32 0-48 2-12 4-24 7-36 28-102 94-165 197-191 8-2 17-3 26-5 18 0 36 0 54 0 11 2 23 4 34 8 101 28 164 94 189 196 2 8 3 16 5 24 0 18 0 36 0 54-2 10-4 20-6 30z m-88-209c0-7-2-10-9-12-34-9-68-19-102-29-3-1-8-2-11-1-64 24-128 48-192 72-1 0-1 1-2 3 66-8 132-17 199-26 0 93 0 185 0 278-46-11-91-22-137-32 0-5 0-9 0-13 0-55 0-111 0-167 0-8-2-12-9-14-20-8-40-17-61-25 0 4 0 7 0 9 0 73 0 145 0 217 0 7 2 11 9 13 63 24 127 49 191 73 4 2 11 2 16 1 33-10 66-21 99-30 7-2 9-5 9-13 0-101 0-202 0-304z"/>
<glyph glyph-name="building" unicode="&#55;" d="M421 512c5 0 9-2 12-5 4-4 6-8 6-13l0-476c0-5-2-9-6-13-3-3-7-5-12-5l-366 0c-5 0-9 2-13 5-4 4-5 8-5 13l0 476c0 5 1 9 5 13 4 3 8 5 13 5z m-238-82l0-19c0-2 1-4 2-6 2-2 4-3 7-3l18 0c3 0 5 1 7 3 2 2 2 4 2 6l0 19c0 2 0 5-2 6-2 2-4 3-7 3l-18 0c-3 0-5-1-7-3-1-1-2-4-2-6z m0-73l0-19c0-2 1-5 2-6 2-2 4-3 7-3l18 0c3 0 5 1 7 3 2 1 2 4 2 6l0 19c0 2 0 4-2 6-2 2-4 3-7 3l-18 0c-3 0-5-1-7-3-1-2-2-4-2-6z m0-74l0-18c0-3 1-5 2-6 2-2 4-3 7-3l18 0c3 0 5 1 7 3 2 1 2 3 2 6l0 18c0 3 0 5-2 7-2 2-4 3-7 3l-18 0c-3 0-5-1-7-3-1-2-2-4-2-7z m0-73l0-18c0-3 1-5 2-7 2-1 4-2 7-2l18 0c3 0 5 1 7 2 2 2 2 4 2 7l0 18c0 3 0 5-2 7-2 2-4 2-7 2l-18 0c-3 0-5 0-7-2-1-2-2-4-2-7z m-37-91l0 18c0 3-1 5-2 7-2 1-4 2-7 2l-18 0c-3 0-5-1-7-2-1-2-2-4-2-7l0-18c0-3 1-5 2-7 2-1 4-2 7-2l18 0c3 0 5 1 7 2 1 2 2 4 2 7z m0 73l0 18c0 3-1 5-2 7-2 2-4 2-7 2l-18 0c-3 0-5 0-7-2-1-2-2-4-2-7l0-18c0-3 1-5 2-7 2-1 4-2 7-2l18 0c3 0 5 1 7 2 1 2 2 4 2 7z m0 73l0 18c0 3-1 5-2 7-2 2-4 3-7 3l-18 0c-3 0-5-1-7-3-1-2-2-4-2-7l0-18c0-3 1-5 2-6 2-2 4-3 7-3l18 0c3 0 5 1 7 3 1 1 2 3 2 6z m0 73l0 19c0 2-1 4-2 6-2 2-4 3-7 3l-18 0c-3 0-5-1-7-3-1-2-2-4-2-6l0-19c0-2 1-5 2-6 2-2 4-3 7-3l18 0c3 0 5 1 7 3 1 1 2 4 2 6z m0 73l0 19c0 2-1 5-2 6-2 2-4 3-7 3l-18 0c-3 0-5-1-7-3-1-1-2-4-2-6l0-19c0-2 1-4 2-6 2-2 4-3 7-3l18 0c3 0 5 1 7 3 1 2 2 4 2 6z m147-365l0 55c0 2-1 4-3 6-2 2-4 3-7 3l-91 0c-3 0-5-1-7-3-1-2-2-4-2-6l0-55c0-3 1-5 2-7 2-2 4-2 7-2l91 0c3 0 5 0 7 2 2 2 3 4 3 7z m0 146l0 18c0 3-1 5-3 7-2 2-4 2-7 2l-18 0c-3 0-5 0-6-2-2-2-3-4-3-7l0-18c0-3 1-5 3-7 1-1 3-2 6-2l18 0c3 0 5 1 7 2 2 2 3 4 3 7z m0 73l0 18c0 3-1 5-3 7-2 2-4 3-7 3l-18 0c-3 0-5-1-6-3-2-2-3-4-3-7l0-18c0-3 1-5 3-6 1-2 3-3 6-3l18 0c3 0 5 1 7 3 2 1 3 3 3 6z m0 73l0 19c0 2-1 4-3 6-2 2-4 3-7 3l-18 0c-3 0-5-1-6-3-2-2-3-4-3-6l0-19c0-2 1-5 3-6 1-2 3-3 6-3l18 0c3 0 5 1 7 3 2 1 3 4 3 6z m0 73l0 19c0 2-1 5-3 6-2 2-4 3-7 3l-18 0c-3 0-5-1-6-3-2-1-3-4-3-6l0-19c0-2 1-4 3-6 1-2 3-3 6-3l18 0c3 0 5 1 7 3 2 2 3 4 3 6z m73-292l0 18c0 3-1 5-3 7-2 1-4 2-6 2l-19 0c-2 0-5-1-6-2-2-2-3-4-3-7l0-18c0-3 1-5 3-7 1-1 4-2 6-2l19 0c2 0 4 1 6 2 2 2 3 4 3 7z m0 73l0 18c0 3-1 5-3 7-2 2-4 2-6 2l-19 0c-2 0-5 0-6-2-2-2-3-4-3-7l0-18c0-3 1-5 3-7 1-1 4-2 6-2l19 0c2 0 4 1 6 2 2 2 3 4 3 7z m0 73l0 18c0 3-1 5-3 7-2 2-4 3-6 3l-19 0c-2 0-5-1-6-3-2-2-3-4-3-7l0-18c0-3 1-5 3-6 1-2 4-3 6-3l19 0c2 0 4 1 6 3 2 1 3 3 3 6z m0 73l0 19c0 2-1 4-3 6-2 2-4 3-6 3l-19 0c-2 0-5-1-6-3-2-2-3-4-3-6l0-19c0-2 1-5 3-6 1-2 4-3 6-3l19 0c2 0 4 1 6 3 2 1 3 4 3 6z m0 73l0 19c0 2-1 5-3 6-2 2-4 3-6 3l-19 0c-2 0-5-1-6-3-2-1-3-4-3-6l0-19c0-2 1-4 3-6 1-2 4-3 6-3l19 0c2 0 4 1 6 3 2 2 3 4 3 6z"/>
<glyph glyph-name="building-1" unicode="&#56;" d="M165 137l0-18c0-3-1-5-3-7-2-1-4-2-7-2l-18 0c-2 0-4 1-6 2-2 2-3 4-3 7l0 18c0 3 1 5 3 7 2 1 4 2 6 2l18 0c3 0 5-1 7-2 2-2 3-4 3-7z m0 73l0-18c0-2-1-5-3-6-2-2-4-3-7-3l-18 0c-2 0-4 1-6 3-2 1-3 4-3 6l0 18c0 3 1 5 3 7 2 2 4 2 6 2l18 0c3 0 5 0 7-2 2-2 3-4 3-7z m73 0l0-18c0-2-1-5-3-6-2-2-4-3-6-3l-19 0c-2 0-4 1-6 3-2 1-3 4-3 6l0 18c0 3 1 5 3 7 2 2 4 2 6 2l19 0c2 0 4 0 6-2 2-2 3-4 3-7z m-73 73l0-18c0-2-1-4-3-6-2-2-4-3-7-3l-18 0c-2 0-4 1-6 3-2 2-3 4-3 6l0 18c0 3 1 5 3 7 2 2 4 3 6 3l18 0c3 0 5-1 7-3 2-2 3-4 3-7z m219-146l0-18c0-3-1-5-3-7-2-1-4-2-6-2l-18 0c-3 0-5 1-7 2-2 2-3 4-3 7l0 18c0 3 1 5 3 7 2 1 4 2 7 2l18 0c2 0 4-1 6-2 2-2 3-4 3-7z m-73 73l0-18c0-2-1-5-3-6-2-2-4-3-6-3l-19 0c-2 0-4 1-6 3-2 1-3 4-3 6l0 18c0 3 1 5 3 7 2 2 4 2 6 2l19 0c2 0 4 0 6-2 2-2 3-4 3-7z m-73 73l0-18c0-2-1-4-3-6-2-2-4-3-6-3l-19 0c-2 0-4 1-6 3-2 2-3 4-3 6l0 18c0 3 1 5 3 7 2 2 4 3 6 3l19 0c2 0 4-1 6-3 2-2 3-4 3-7z m-73 74l0-19c0-2-1-4-3-6-2-2-4-3-7-3l-18 0c-2 0-4 1-6 3-2 2-3 4-3 6l0 19c0 2 1 4 3 6 2 2 4 3 6 3l18 0c3 0 5-1 7-3 2-2 3-4 3-6z m219-147l0-18c0-2-1-5-3-6-2-2-4-3-6-3l-18 0c-3 0-5 1-7 3-2 1-3 4-3 6l0 18c0 3 1 5 3 7 2 2 4 2 7 2l18 0c2 0 4 0 6-2 2-2 3-4 3-7z m-73 73l0-18c0-2-1-4-3-6-2-2-4-3-6-3l-19 0c-2 0-4 1-6 3-2 2-3 4-3 6l0 18c0 3 1 5 3 7 2 2 4 3 6 3l19 0c2 0 4-1 6-3 2-2 3-4 3-7z m-73 74l0-19c0-2-1-4-3-6-2-2-4-3-6-3l-19 0c-2 0-4 1-6 3-2 2-3 4-3 6l0 19c0 2 1 4 3 6 2 2 4 3 6 3l19 0c2 0 4-1 6-3 2-2 3-4 3-6z m-73 73l0-19c0-2-1-4-3-6-2-2-4-3-7-3l-18 0c-2 0-4 1-6 3-2 2-3 4-3 6l0 19c0 2 1 4 3 6 2 2 4 3 6 3l18 0c3 0 5-1 7-3 2-2 3-4 3-6z m219-147l0-18c0-2-1-4-3-6-2-2-4-3-6-3l-18 0c-3 0-5 1-7 3-2 2-3 4-3 6l0 18c0 3 1 5 3 7 2 2 4 3 7 3l18 0c2 0 4-1 6-3 2-2 3-4 3-7z m-73 74l0-19c0-2-1-4-3-6-2-2-4-3-6-3l-19 0c-2 0-4 1-6 3-2 2-3 4-3 6l0 19c0 2 1 4 3 6 2 2 4 3 6 3l19 0c2 0 4-1 6-3 2-2 3-4 3-6z m-73 73l0-19c0-2-1-4-3-6-2-2-4-3-6-3l-19 0c-2 0-4 1-6 3-2 2-3 4-3 6l0 19c0 2 1 4 3 6 2 2 4 3 6 3l19 0c2 0 4-1 6-3 2-2 3-4 3-6z m146-73l0-19c0-2-1-4-3-6-2-2-4-3-6-3l-18 0c-3 0-5 1-7 3-2 2-3 4-3 6l0 19c0 2 1 4 3 6 2 2 4 3 7 3l18 0c2 0 4-1 6-3 2-2 3-4 3-6z m-73 73l0-19c0-2-1-4-3-6-2-2-4-3-6-3l-19 0c-2 0-4 1-6 3-2 2-3 4-3 6l0 19c0 2 1 4 3 6 2 2 4 3 6 3l19 0c2 0 4-1 6-3 2-2 3-4 3-6z m73 0l0-19c0-2-1-4-3-6-2-2-4-3-6-3l-18 0c-3 0-5 1-7 3-2 2-3 4-3 6l0 19c0 2 1 4 3 6 2 2 4 3 7 3l18 0c2 0 4-1 6-3 2-2 3-4 3-6z m-73-393l110 0 0 438-330 0 0-438 110 0 0 64c0 2 1 4 3 6 2 2 4 3 6 3l92 0c2 0 4-1 6-3 2-2 3-4 3-6z m146 457l0-476c0-5-2-9-5-13-4-3-8-5-13-5l-366 0c-5 0-9 2-13 5-3 4-5 8-5 13l0 476c0 5 2 9 5 13 4 3 8 5 13 5l366 0c5 0 9-2 13-5 3-4 5-8 5-13z"/>
<glyph glyph-name="hall" unicode="&#57;" d="M256 448l-160-107 320 0z m197-363l-37 64 0 150c0 12-9 21-21 21l-278 0c-11 0-21-9-21-21l0-150-37-64c-3-5-6-7-6-10 0-11 14-11 22-11l362 0c8 0 22 0 22 11 0 3-2 4-6 10z m-272 43l-42 0 0 128c0 12 9 21 21 21 12 0 19-9 21-21z m96 43l0-43-42 0 0 128c0 12 9 21 21 21 12 0 22-9 21-21z m96-43l-42 0 0 128c0 12 9 21 21 21 12 0 21-9 21-21z"/>
<glyph glyph-name="dowload-book" unicode="&#33;" d="M245 21l-170 0c-18 0-32 15-32 32l0 363c9-6 20-11 32-11l352 0 0-128c0-6 4-10 10-10 6 0 11 4 11 10l0 150-373 0c-18 0-32 14-32 32 0 17 14 32 32 32l362 0c6 0 11 4 11 10 0 6-5 11-11 11l-362 0c-30 0-54-24-54-53l0-406c0-29 24-53 54-53l170 0c6 0 11 5 11 11 0 6-5 10-11 10z m118 235c-71 0-128-57-128-128 0-71 57-128 128-128 70 0 128 57 128 128 0 71-58 128-128 128z m0-235c-59 0-107 48-107 107 0 59 48 107 107 107 58 0 106-48 106-107 0-59-48-107-106-107z m35 104l-25-25 0 81c0 6-4 11-10 11-6 0-11-5-11-11l0-81-24 25c-5 4-11 4-16 0-4-4-4-11 0-15l43-43c0 0 0 0 0 0l8-7 7 7c0 0 0 0 0 0l43 43c4 4 4 11 0 15-4 4-11 4-15 0z m-323 344l352 0 0-21-352 0z"/>
<glyph glyph-name="star" unicode="&#34;" d="M510 311c-4 13-16 22-29 24l-134 20-58 120c-6 13-19 21-33 21-14 0-27-8-33-21l-58-120-134-20c-13-2-25-11-29-24-4-13-1-27 9-36l97-98-22-135c-3-14 3-27 15-35 6-5 13-7 21-7 6 0 12 2 18 4l116 63 116-63c6-2 12-4 18-4 8 0 15 2 21 7 12 8 18 21 15 35l-22 135 98 98c9 9 12 23 8 36z m-133-109c-8-8-11-19-10-31l23-135-116 63c-6 3-12 4-18 4-6 0-12-1-18-4l-116-63 23 135c1 12-2 23-10 31l-98 98 133 20c12 1 23 9 28 20l58 120 58-120c5-11 16-19 28-21l133-19z"/>
<glyph glyph-name="bookmark" unicode="&#35;" d="M344 448l-176 0c-4 0-8-4-8-8l0-56 192 0 0 56c0 4-4 8-8 8z m-184-384l96 96 96-96 0 304-192 0z"/>
<glyph glyph-name="bookmark-1" unicode="&#36;" d="M406 475c4 0 8 0 12-2 7-3 12-7 15-12 4-5 6-11 6-18l0-368c0-6-2-12-6-18-3-5-8-9-15-11-3-2-8-3-12-3-9 0-17 3-24 10l-126 121-126-121c-7-7-15-10-24-10-4 0-8 1-12 3-7 2-12 6-15 11-4 6-6 12-6 18l0 368c0 7 2 13 6 18 3 5 8 9 15 12 4 2 8 2 12 2z"/>
<glyph glyph-name="bookmark-o" unicode="&#37;" d="M402 439l-292 0 0-355 121 116 25 24 25-24 121-116z m4 36c4 0 8 0 12-2 7-3 12-7 15-12 4-5 6-11 6-18l0-368c0-6-2-12-6-18-3-5-8-9-15-11-3-2-8-3-12-3-9 0-17 3-24 10l-126 121-126-121c-7-7-15-10-24-10-4 0-8 1-12 3-7 2-12 6-15 11-4 6-6 12-6 18l0 368c0 7 2 13 6 18 3 5 8 9 15 12 4 2 8 2 12 2z"/>
<glyph glyph-name="bookmark-2" unicode="&#38;" d="M160 448l0-384 96 64 96-64 0 384z m158-98l-36-26 14-42c1-4-1-6-4-3l-36 26-36-26c-3-3-5-1-4 3l14 42-36 26c-3 2-3 4 2 4l44 0 13 42c2 4 4 4 6 0l13-42 44 0c5 0 5-2 2-4z"/>
<glyph glyph-name="address-book" unicode="&#39;" d="M416 351c5 0 10 4 10 10l0 30c0 6-5 10-10 10l-24 0 0 9c0 9-7 16-16 16l-274 0c-9 0-16-7-16-16l0-308c0-9 7-16 16-16l274 0c9 0 16 7 16 16l0 9 24 0c5 0 10 5 10 10l0 30c0 6-5 11-10 11l-24 0 0 29 24 0c5 0 10 4 10 10l0 30c0 6-5 11-10 11l-24 0 0 29 24 0c5 0 10 4 10 10l0 30c0 6-5 10-10 10l-24 0 0 30 24 0z m-97-165c0-6-4-11-9-11l-142 0c-5 0-10 5-10 11l0 44c0 4 3 8 6 10l56 26c-13 8-22 24-22 42 0 27 18 48 41 48 23 0 41-21 41-48 0-18-9-34-21-42l55-26c3-2 5-6 5-10l0-44z"/>
<glyph glyph-name="cloud-download" unicode="&#41;" d="M288 320l-64 0 0-160-64 0 96-128 96 128-64 0z m160 14l0 2c0 80-64 144-144 144-53 0-100-29-124-73-11 6-23 9-36 9-44 0-80-36-80-80l0-2c-38-22-64-63-64-110 0-70 58-128 128-128l0 32c-53 0-96 43-96 96 0 34 18 65 48 83l16 9 0 18 0 4c1 25 22 46 48 46 7 0 14-2 21-5l27-14 15 26c21 36 57 57 97 57 61 0 111-49 112-110l0-1 0-21 16-9c30-18 48-49 48-83 0-53-43-96-96-96l0-32c70 0 128 58 128 128 0 47-26 88-64 110"/>
<glyph glyph-name="legal" unicode="&#40;" d="M421 384l-110-201 219 0z m-366 0l-110-201 220 0z m234 55c-2-8-7-15-13-21-6-6-12-10-20-13l0-368 174 0c2 0 5-1 6-3 2-2 3-4 3-7l0-18c0-3-1-5-3-6-1-2-4-3-6-3l-384 0c-3 0-5 1-7 3-2 1-2 3-2 6l0 18c0 3 0 5 2 7 2 2 4 3 7 3l173 0 0 368c-7 3-14 7-20 13-6 6-10 13-13 21l-140 0c-3 0-5 1-7 2-2 2-2 4-2 7l0 18c0 3 0 5 2 7 2 2 4 2 7 2l140 0c4 11 11 20 20 27 9 7 20 10 32 10 12 0 22-3 31-10 10-7 16-16 20-27l141 0c2 0 5 0 6-2 2-2 3-4 3-7l0-18c0-3-1-5-3-7-1-1-4-2-6-2z m-51-5c6 0 11 3 16 7 4 4 7 10 7 16 0 6-3 12-7 16-5 5-10 7-16 7-7 0-12-2-16-7-5-4-7-10-7-16 0-6 2-12 7-16 4-4 9-7 16-7z m311-251c0-14-5-27-14-38-9-11-20-19-33-26-14-6-28-11-42-14-14-3-27-4-39-4-13 0-26 1-40 4-14 3-28 8-42 14-13 7-24 15-33 26-9 11-13 24-13 38 0 2 3 10 10 23 6 13 15 30 26 50 11 20 21 38 30 56 10 17 20 35 30 52 9 18 15 28 16 29 3 6 8 9 16 9 7 0 12-3 16-9 0-1 6-11 16-29 9-17 19-35 29-52 9-18 19-36 30-56 11-20 20-37 27-50 6-13 10-21 10-23z m-366 0c0-14-5-27-13-38-9-11-20-19-34-26-14-6-27-11-41-14-14-3-28-4-40-4-13 0-26 1-40 4-14 3-28 8-41 14-14 7-25 15-34 26-9 11-13 24-13 38 0 2 3 10 10 23 7 13 15 30 26 50 11 20 21 38 31 56 9 17 19 35 29 52 10 18 15 28 16 29 3 6 9 9 16 9 7 0 12-3 16-9 1-1 6-11 16-29 10-17 19-35 29-52 10-18 20-36 31-56 10-20 19-37 26-50 7-13 10-21 10-23z"/>
<glyph glyph-name="gavel" unicode="&#42;" d="M506 73c0-10-4-19-11-26l-30-30c-8-7-16-11-26-11-10 0-19 4-26 11l-104 104c-7 6-10 15-10 25 0 10 4 20 12 28l-73 73-36-36c-3-3-6-4-10-4-4 0-7 1-10 4 1-1 2-2 4-4 2-1 3-3 3-3 1-1 2-2 3-4 2-1 3-2 3-3 1-1 1-3 2-4 1-2 1-3 1-5 1-2 1-3 1-5 0-7-3-14-8-20-1 0-2-2-5-5-2-3-4-5-5-6-1-1-3-2-6-4-2-2-4-4-6-5-2-1-4-1-6-2-3-1-5-2-8-2-7 0-14 3-19 8l-117 117c-5 5-8 12-8 19 0 3 1 5 2 8 1 2 1 4 2 6 1 2 3 4 5 6 2 3 3 5 4 6 1 1 3 3 6 5 3 3 5 4 5 5 6 5 13 8 20 8 2 0 3 0 5-1 2 0 3 0 5-1 1-1 3-1 4-2 1 0 2-1 3-3 2-1 3-2 4-3 0 0 2-1 3-3 2-2 3-3 4-4-3 3-4 6-4 10 0 4 1 7 4 10l99 99c3 3 6 4 10 4 4 0 7-1 10-4-1 1-2 2-4 4-2 1-3 3-3 3-1 1-2 2-3 4-2 1-3 2-3 3-1 1-1 3-2 4-1 2-1 3-1 5-1 2-1 3-1 5 0 7 3 14 8 20 1 0 2 2 5 5 2 3 4 5 5 6 1 1 3 2 6 4 2 2 4 4 6 5 2 1 4 1 6 2 3 1 5 2 8 2 7 0 14-3 19-8l117-117c5-5 8-12 8-19 0-3-1-5-2-8-1-2-1-4-2-6-1-2-3-4-5-6-2-3-3-5-4-6-1-1-3-3-6-5-3-3-5-4-5-5-6-5-13-8-20-8-2 0-3 0-5 1-2 0-3 0-5 1-1 1-3 1-4 2-1 0-2 1-3 3-2 1-3 2-4 3 0 0-2 1-3 3-2 2-3 3-4 4 3-3 4-6 4-10 0-4-1-7-4-10l-36-36 73-73c8 8 18 12 28 12 10 0 18-3 26-10l103-104c7-7 11-16 11-26z"/>
<glyph glyph-name="server" unicode="&#43;" d="M37 110l292 0 0 36-292 0z m0 146l292 0 0 37-292 0z m448-128c0 8-3 14-8 19-6 6-12 8-20 8-7 0-14-2-19-8-6-5-8-11-8-19 0-8 2-14 8-19 5-6 12-8 19-8 8 0 14 2 20 8 5 5 8 11 8 19z m-448 274l292 0 0 37-292 0z m448-128c0 8-3 14-8 20-6 5-12 8-20 8-7 0-14-3-19-8-6-6-8-12-8-20 0-7 2-14 8-19 5-5 12-8 19-8 8 0 14 3 20 8 5 5 8 12 8 19z m0 147c0 7-3 14-8 19-6 5-12 8-20 8-7 0-14-3-19-8-6-5-8-12-8-19 0-8 2-15 8-20 5-5 12-8 19-8 8 0 14 3 20 8 5 5 8 12 8 20z m27-238l0-110-512 0 0 110z m0 146l0-110-512 0 0 110z m0 146l0-109-512 0 0 109z"/>
<glyph glyph-name="phone" unicode="&#44;" d="M457 158c0-5-1-12-3-20-2-9-4-15-6-20-4-10-15-20-35-30-17-10-35-15-53-15-5 0-10 0-15 1-5 1-10 2-16 4-6 1-11 3-14 4-3 1-8 3-16 6-7 3-12 4-14 5-18 7-35 14-50 24-24 15-49 35-75 61-26 26-47 51-62 76-9 14-17 31-23 50-1 1-3 6-6 14-2 7-4 13-5 16-1 3-3 7-5 13-1 6-2 12-3 17-1 4-1 9-1 15 0 17 5 35 14 53 11 19 21 31 31 35 4 2 11 4 19 6 9 1 15 2 20 2 3 0 5 0 6 0 4-2 9-9 16-22 2-4 5-9 8-16 4-6 7-12 10-18 3-5 6-10 9-15 1-1 2-3 5-7 3-4 5-8 6-10 1-3 2-6 2-8 0-4-3-9-8-15-5-5-11-11-18-15-6-5-12-10-17-16-6-5-9-9-9-13 0-1 1-4 2-6 1-3 2-5 2-6 1-1 2-4 4-7 2-3 3-5 4-5 14-26 31-49 49-67 19-19 41-36 67-50 1 0 3-1 6-3 3-2 5-4 7-4 1-1 3-2 6-3 2-1 4-1 6-1 3 0 8 2 13 8 5 5 11 11 15 18 5 6 10 12 16 17 6 6 10 8 14 8 3 0 6 0 8-2 3-1 7-3 11-6 4-2 6-4 7-5 4-3 10-6 15-9 5-3 11-6 18-10 7-3 12-6 16-8 13-7 20-12 21-15 1-2 1-4 1-6z"/>
<glyph glyph-name="archive" unicode="&#45;" d="M81 46c20 0 36 16 36 35 0 20-16 36-36 36-19 0-35-16-35-36 0-19 16-35 35-35z m0 47c7 0 12-5 12-12 0-6-5-11-12-11-6 0-11 5-11 11 0 7 5 12 11 12z m70 419l-139 0c-7 0-12-5-12-12l0-488c0-7 5-12 12-12l139 0c7 0 12 5 12 12l0 488c0 7-5 12-12 12z m-11-489l-117 0 0 466 117 0z m-82 223l47 0c6 0 12 5 12 11l0 197c0 6-6 12-12 12l-47 0c-6 0-12-6-12-12l0-197c0-6 6-11 12-11z m12 196l23 0 0-173-23 0z m361-396c19 0 35 16 35 35 0 20-16 36-35 36-20 0-36-16-36-36 0-19 16-35 36-35z m0 47c6 0 11-5 11-12 0-6-5-11-11-11-7 0-12 5-12 11 0 7 5 12 12 12z m-24 153l47 0c6 0 12 5 12 11l0 197c0 6-6 12-12 12l-47 0c-6 0-12-6-12-12l0-197c0-6 6-11 12-11z m12 196l23 0 0-173-23 0z m81 70l-139 0c-7 0-12-5-12-12l0-488c0-7 5-12 12-12l139 0c7 0 12 5 12 12l0 488c0 7-5 12-12 12z m-11-489l-117 0 0 466 117 0z m-233 23c19 0 35 16 35 35 0 20-16 36-35 36-19 0-35-16-35-36 0-19 16-35 35-35z m0 47c7 0 12-5 12-12 0-6-5-11-12-11-7 0-12 5-12 11 0 7 5 12 12 12z m-24 153l48 0c6 0 11 5 11 11l0 197c0 6-5 12-11 12l-48 0c-6 0-11-6-11-12l0-197c0-6 5-11 11-11z m12 196l24 0 0-173-24 0z m82 70l-140 0c-6 0-11-5-11-12l0-488c0-7 5-12 11-12l140 0c6 0 11 5 11 12l0 488c0 7-5 12-11 12z m-12-489l-116 0 0 466 116 0z"/>
<glyph glyph-name="caja" unicode="&#46;" d="M448 240l0 128-64 0 0 32 64 0 0 64-160 0 0-64 64 0 0-32-144 0 0 96-112-64 0-32-32 0 0-128-64-112 0-80 512 0 0 80z m-96 96l16 0 0-64-16 0z m-32 0l16 0 0-64-16 0z m-224 0l160 0 0-48-160 0z m29-143l-29 0 0 30 29 0z m31-47l-28 0 0 28 28 0z m27 47l-29 0 0 30 29 0z m30-47l-28 0 0 28 28 0z m28 47l-29 0 0 30 29 0z m29-47l-28 0 0 28 28 0z m1 77l29 0 0-30-29 0z m56-77l-28 0 0 28 28 0z m2 77l29 0 0-30-29 0z m55-77l-28 0 0 28 28 0z m0 190l16 0 0-64-16 0z m32-143l-29 0 0 30 29 0z m16 79l-16 0 0 64 16 0z"/>
<glyph glyph-name="buy4" unicode="&#47;" d="M348 402c0 45-36 81-80 81-45 0-81-36-81-81 0-44 36-80 81-80 44 0 80 36 80 80z m-80-68c-38 0-69 31-69 69 0 37 31 68 69 68 37 0 68-31 68-68 0-38-31-69-68-69z m4 76c-10 5-12 7-12 12 0 3 2 7 9 7 7 0 12-2 14-4l3-1 4 13-2 1c-4 2-9 4-14 4l0 12-13 0 0-12c-11-3-17-11-17-22 0-13 10-19 21-23 9-4 11-7 11-12 0-2-1-4-2-6-5-4-17-3-24 2l-3 2-5-13 2-1c4-3 10-5 17-6l0-12 13 0 0 13c11 3 18 11 18 22 0 12-6 19-20 24z m101-49c-35 0-63-28-63-63 0-34 28-62 63-62 34 0 62 28 62 62 0 35-28 63-62 63z m0-114c-28 0-51 23-51 51 0 29 23 52 51 52 28 0 51-23 51-52 0-28-23-51-51-51z m4 58c-8 3-9 5-9 8 0 3 2 5 6 5 5 0 8-2 10-3l3-1 4 11-2 1c-3 2-7 3-10 3l0 9-12 0 0-9c-8-3-13-9-13-17 0-10 8-15 17-18 6-3 8-6 8-9 0-1-1-3-2-4-3-3-12-2-18 2l-2 1-4-11 1-1c3-2 8-4 13-4l0-10 11 0 0 10c9 3 14 9 14 18 0 11-8 16-15 19z m-377-235l81 0 0 160-81 0z m16 144l49 0 0-128-49 0z m494-82c-3 6-31 62-64 56-10-1-17-10-28-21-19-20-45-47-86-47-25 0-53 10-84 30l64 0c0 0 1 0 2 0 17 0 27 10 27 24l0 26 0 2c-2 9-10 27-28 27l-218 0 0-154 6-2c6-1 143-44 193-44 0 0 2 0 4 0 22 0 134 4 211 94l3 4z m-212-87c-2 0-3 0-3 0-43 0-157 34-184 42l0 126 202 0c8 0 12-11 12-14l0-25c0-6-6-8-11-8l-115 0 19-14c41-32 80-48 114-48 48 0 78 31 97 52 7 7 16 16 20 17 15 2 34-24 44-44-72-80-175-84-195-84z"/>
<glyph glyph-name="shop" unicode="&#58;" d="M491 54l0 240c10 9 16 22 16 37l0 181-500 0 0-181c0-14 5-27 15-36l0-241-20 0 0-54 508 0 0 54z m-81 377l0-100c0-18-14-33-32-33-18 0-32 15-32 33l0 100z m-161 0l0-100c0-18-15-33-33-33-17 0-31 15-32 32 0 0 0 0 0 1l0 100z m-81 0l0-100c0-1 0-1 0-1 0-17-15-32-32-32-18 0-32 15-32 33l0 100z m-145-100l0 100 64 0 0-100c0-18-14-33-32-33-18 0-32 15-32 33z m280-196l-237 0 0 119 237 0z m26 196c0-18-14-33-32-33-18 0-32 15-32 33l0 100 64 0z m116-271l-102 0 0 194 102 0z m46 271c0-18-15-33-32-33-18 0-33 15-33 33l0 100 65 0c0 0 0-100 0-100z"/>
<glyph glyph-name="f5" unicode="&#59;" d="M468 402c-4-16-6-28-8-40-46 3-89 7-133 10-5-14-8-26-12-37 25-5 50-8 73-14 38-9 71-27 90-63 33-61 7-139-59-172-51-26-105-21-158-7-3 1-6 2-7 3-8 17-18 34-20 51-1 8 15 18 23 29 6 5 9 5 14-2 8-12 17-25 25-37 16-26 39-35 68-33 25 2 49 20 55 43 5 23-3 48-25 62-19 11-39 20-59 26-28 8-56 10-85 16 0 1 0 2 0 3 21 62 41 124 62 186 2 6 5 9 12 9 20-3 40-3 61-5 22-2 45-7 70-10-3 4-4 7-7 8-32 34-70 59-116 73-13 4-28 8-43 11-22 0-43 0-66 0-18-5-38-8-55-15-92-36-149-103-166-202 0-3-1-5-2-6 0-22 0-43 0-66 1-2 2-3 2-6 5-36 20-69 39-101 5-8 10-14 19-10 12 3 8 11 8 19-1 31-4 60-5 91-2 24 0 49 0 73-13 0-24 0-36 0 1 10 1 19 1 28 10 2 18 4 24 4 11 0 14 4 13 14 0 26 10 48 29 67 29 27 63 39 102 46 30 6 58 3 79-21 3-4 6-8 5-12-5-17-19-21-35-15-17 7-35 15-53 19-13 3-25-6-27-21-2-24-3-48-5-73 31 0 60 0 87 0 3-13 1-22-14-26-10-2-19-5-29-7-14-1-29 0-41 0-1-2-3-3-3-4 2-59 3-118 3-178 0-9 4-16 13-17 14-2 27-4 41-8 0-4 0-10 0-18-51 5-100 9-149 14 49-58 128-94 223-80 103 15 174 75 207 173 28 80 16 155-30 228z"/>
<glyph glyph-name="agenda" unicode="&#60;" d="M480 384c18 0 32 14 32 32l0 64-64 0 0 32-416 0c-18 0-32-14-32-32l0-448c0-18 14-32 32-32l416 0 0 128 32 0c18 0 32 14 32 32l0 64-64 0 0 32 32 0c18 0 32 14 32 32l0 64-64 0 0 32z m-192 0c35 0 64-29 64-64 0-35-29-64-64-64-35 0-64 29-64 64 0 35 29 64 64 64z m-160-352l-32 0 0 448 32 0z m256 96l-192 0 0 32c0 35 29 64 64 64l64 0c35 0 64-29 64-64z"/>
<glyph glyph-name="email-1" unicode="&#61;" d="M49 333c7-4 26-18 59-40 32-23 57-40 74-53 2-1 6-4 13-8 6-5 11-8 15-11 4-3 9-6 15-9 6-4 11-6 16-8 5-2 10-3 15-3l0 0c4 0 9 1 14 3 6 2 11 4 17 8 6 3 11 6 15 9 4 3 9 6 15 11 6 4 10 7 12 8 18 13 62 44 134 93 14 10 25 22 35 35 9 14 14 28 14 43 0 13-5 24-14 33-9 9-20 13-32 13l-420 0c-15 0-26-5-34-15-8-10-12-22-12-37 0-12 5-25 16-39 10-14 21-25 33-33z m434-30c-62-43-110-75-142-99-11-8-20-14-27-18-6-5-15-10-26-14-12-5-22-7-32-7l0 0c-10 0-21 2-32 7-11 4-20 9-27 14-7 4-15 10-26 18-26 19-73 52-142 99-11 7-21 15-29 25l0-227c0-13 4-23 13-32 9-9 20-14 33-14l420 0c13 0 23 5 32 14 9 9 14 19 14 32l0 227c-9-10-18-18-29-25z"/>
<glyph glyph-name="yes" unicode="&#62;" d="M257-1l-1 0c-141 0-256 115-256 257 0 141 115 256 256 256 69 0 133-27 182-75 48-49 75-113 75-181 0-69-27-133-75-182-49-48-113-75-181-75z m-1 492c-129 0-235-106-235-235 0-130 106-236 235-236l1 0c62 0 121 25 166 69 44 45 69 104 69 167 0 62-25 121-69 166-45 44-104 69-167 69z m0-443l0 0c-55 0-107 22-146 61-40 39-61 91-61 147 0 114 93 207 207 207 0 0 0 0 0 0 56 0 108-22 147-61 39-39 61-91 61-146 0-56-22-108-61-147-39-39-91-61-147-61z m0 394c0 0 0 0 0 0-102 0-186-84-186-186 0-50 19-97 55-132 35-35 82-55 131-55l0-10 0 10c50 0 97 20 132 55 35 35 54 82 54 132 0 49-19 96-54 131-35 35-82 55-132 55z m-32-235c-2 0-5 1-7 3-4 5-4 11 0 15l113 114c4 4 11 4 15 0 4-4 4-11 0-15l-113-114c-2-2-5-3-8-3z m21-57c-2 0-5 1-7 3-4 4-4 11 0 15l131 132c4 5 11 5 15 1 4-5 4-11 0-16l-131-132c-2-2-5-3-8-3z m132 133c-2 0-5 1-7 3-4 4-4 11 0 15 3 3 5 8 5 12 0 4-2 9-5 12-7 6-17 6-24 0-4-5-11-4-15 0-4 4-4 11 0 15 15 15 39 15 54 0 7-7 11-17 11-27 0-10-4-20-11-27-2-2-5-3-8-3z m-152-142c-10 0-20 4-27 11-4 4-4 11 0 15 4 4 11 4 15 0 3-3 7-5 12-5l0 0c4 0 8 2 12 5 3 4 11 5 15 1 4-3 5-10 2-14-1-1-2-2-2-2-7-7-17-11-27-11 0 0 0 0 0 0z m-20 8c-2 0-5 1-7 3l-67 66c-4 4-4 11 0 15 5 5 11 5 16 0l66-66c4-4 4-11 0-15-2-2-5-3-8-3z m19 58c-2 0-5 1-7 3l-47 47c-4 4-4 11 0 15 4 4 11 4 15 0l47-47c4-4 4-10 0-15-2-2-5-3-8-3z m-85 8c-2 0-5 1-7 3-15 15-15 39 0 54 7 7 16 11 27 11 0 0 0 0 0 0 10 0 19-4 26-11 5-4 5-11 0-15-4-4-11-4-15 0-3 3-7 5-11 5 0 0 0 0 0 0-5 0-9-2-12-5-7-7-7-17 0-24 4-4 4-11 0-15-2-2-5-3-8-3z"/>
<glyph glyph-name="proxy" unicode="&#63;" d="M158 49l351 0 2 8-357 0z m4 64l0 196 142 0 1 1 2 11-4 14-33 14c0 0-3-11 5-24 0 0-2-15-10-11l-19 9c0 0-6 3-17-3-10-6-28 0-28 0 0 0 1 11 12 16l9 6c0 0-2 11 0 19 2 9 6 1 14 8 8 6 14-13 27-11 12 2 6 5 14 9 9 4 15-9 15-9l17-2c0 0-3 19-2 14 8-13 19-43 21-61l22 0c-11 87-82 154-175 154-98 0-175-75-175-175 0-94 67-164 154-174z m79 281l13 8c0 0-5 14-4 20 3 2 15-5 25-16-7-26-23-23-23-23 0 0-12 0-11 11z m-105-155c-1-4-6-13-9-19-3-7-5-9-9-12-4-3-6-9-6-9l-1-13c0 0 2-11 4-15 3-4-8-27-8-27-7 1-11 9-13 15-3 6-6 10-5 17 1 7-6 11-8 15-3 4-6 9-6 13 0 4-8 9-8 9 0 0-16 7-19 11-2 3-4 16-5 22-1 5 2 19 2 19 0 0 7 5 3 9-4 4-5 14-5 14l-7 8c0 0-6 8-6 12-1 4 0 6 0 10 1 4-1 11-1 15 29 72 78 88 78 88l4-16c0 0-8-2-13-1-5 2-7 2-7 2l-6-9c0 0-3-5-4-9 0-3 2-7 2-7 0 0 11-1 11 2 0 3-2 5-2 5l-1 5c0 0 7 4 26 3 19-2 12-15 19-19 8-3-6-14-9-20-3-6-8 8-8 8 0 0 5 5-3 7-8 2-13-14-9-13 4 0 8-5 7-9 0-3 0-3-4-12-4-8-13-15-13-15 0 0-4 3-1-2 2-5-1-16-1-19 0-3-10 6-11 13-2 8-11 1-14 1-3-1-9 1-11 5-1 4-15-8-19-10-4-3-3-9 4-6 6 3 11 1 10-5-2-7-8-3-7-7 1-3 7-7 8-13 2-5 17-1 22 2 4 2 18 4 19-2 2-6 17-9 22-10 6-2 17-2 23-9 6-6-5-18-5-22z m12 158c-11 12-22 16-21 24 0 1 11 4 12 6 16 16 43 13 45 9-5-8-12-5-13-13-1-8-13-18-12-21 2-3 0-17-11-5z m27-272l315 0 0 170-48 0 0-17 29 0 0-136-277 0 0 72 0 0 0 64 165 0 0 17-184 0z m316-9l-316 0-21-53 358 0z m-174-50l4 14 23 0 4-14z m-142 17l10 26 295 0 11-26z m226 115l63 63-42 0 0 87-43 0 0-87-41 0z"/>
<glyph glyph-name="monitoreo" unicode="&#64;" d="M481 471l-450 0c-17 0-31-14-31-31l0-368c0-17 14-31 31-31l450 0c17 0 31 14 31 31l0 368c0 17-14 31-31 31z m-105-405l-28 0c-6 0-10 5-10 10 0 6 4 10 10 10l28 0c5 0 10-4 10-10 0-5-5-10-10-10z m79 0l-27 0c-6 0-10 5-10 10 0 6 4 10 10 10l27 0c6 0 10-4 10-10 0-5-4-10-10-10z m21 37l-440 0 0 132c0 0 0 4 4 4 11 0 33 0 42 0 4 0 8-4 8-4l16-18c2-2 6-4 9-3 3 1 6 4 7 7 0 0 13 49 18 65 1 4 2 1 2 1l13-30c1-3 5-6 10-6 0 0 29 0 39 0 3 0 4-3 4-3l18-70c1-5 5-7 8-7 0 0 0 0 0 0 4 0 8 2 9 7 0 0 20 68 27 90 1 4 3 0 3 0l13-27c2-3 5-6 10-6l43 0c4 0 8 3 10 8 0 0 12 41 16 55 1 3 2 0 2 0l17-68c1-4 4-7 7-7 4 0 8 2 10 5l14 29c0 0 0 2 3 2 14 0 42 0 56 0 2 0 2-2 2-2z m0 175c0-2-2-2-2-2l-62 0c-4 0-8-3-10-6 0 0-4-9-6-12-1-3-2 0-2 0l-18 76c-2 5-5 7-9 7-3 0-7-2-9-7l-24-80c0 0 0-2-3-2-7 0-21 0-29 0-2 0-3 2-3 2l-22 44c-2 4-5 6-9 5-4 0-7-3-8-6l-24-82c0 0-1-4-2 0-3 12-11 45-11 45-2 5-6 8-11 8 0 0-29 0-39 0-4 0-5 3-5 3l-20 47c-2 4-5 7-9 6-4 0-7-3-8-7 0 0-16-53-20-71-2-7-6-2-6-2l-7 8c-3 3-6 4-9 4 0 0-36 0-48 0-5 0-5 4-5 4l0 149 440 0c0 0 0-98 0-131z"/>
<glyph glyph-name="ie" unicode="&#91;" d="M451 512c-7 0-13 0-20 0-19-3-46-11-69-22-19-9-40-29-55-31-11-2-23 3-33 4-136 10-222-86-235-220 47 55 112 144 186 171-107-79-205-211-211-325 0-7 0-14 0-20 7-37 23-64 60-69 6 0 12 0 18 0 54 7 91 31 129 55 138-19 226 45 259 145-49 0-98 0-146 0-16-75-154-56-136 28 95 0 190 0 284 0 7 136-60 198-157 229 30 18 121 71 157 26 16-20 6-61 2-84 7 14 9 33 14 49 0 6 0 13 0 20-5 25-21 39-47 44z m-242-453c-27-19-119-63-150-20-22 30 4 77 15 104 32-41 75-72 135-84z m128 246l-137 0c-5 85 147 91 137 0z"/>
<glyph glyph-name="tbk" unicode="&#93;" d="M57 271c0-98 0-99 14-113 10-10 20-14 37-14 21 0 22 1 22 16 0 14-2 17-15 19-16 2-16 2-19 54l-3 52 17 2c15 1 17 4 17 18 0 16-2 17-18 19-10 1-17 4-15 7 2 3 2 13-1 22-2 15-6 17-20 17l-16 0z m85-14l0-113 17 0c9 0 17 3 17 7 0 5 1 5 6 0 4-4 21-7 39-7 28 0 34 2 47 15 8 8 17 22 19 30 6 27 6 26 7-9l1-36 39 0 0 27c0 22 3 30 14 40l14 13 26-40c24-37 28-40 45-40 11 0 20 1 20 3 0 1-15 26-34 55l-35 51 29 29c33 33 36 43 12 43-12 0-24-8-55-41l-39-41 2 64 2 63-40 0-1-57c0-53-1-57-7-39-11 29-34 45-64 45-14 0-30-2-35-5-8-4-10-1-8 26l2 30-40 0z m104 16c5-8 9-25 9-45 0-38-13-56-37-56-25 0-37 18-37 59 0 43 8 54 37 54 14 0 22-4 28-12z m-231 48c-7-7-4-34 5-38 20-7 39 18 25 34-7 9-23 11-30 4z m446-145c-7-18 0-29 18-29 15 0 17 1 17 17 0 14-3 17-16 18-10 2-17-1-19-6z"/>
<glyph glyph-name="barcode" unicode="&#94;" d="M18 73l-18 0 0 402 18 0z m18 0l-9 0 0 402 9 0z m27 0l-9 0 0 402 9 0z m45 0l-9 0 0 402 9 0z m45 0l-18 0 0 402 18 0z m36 0l-9 0 0 402 9 0z m18 0l-9 0 0 402 9 0z m18 0l-9 0 0 402 9 0z m44 0l-18 0 0 402 18 0z m45 0l-18 0 0 402 18 0z m36 0l-18 0 0 402 18 0z m36 0l-18 0 0 402 18 0z m27 0l-18 0 0 402 18 0z m54 0l-27 0 0 402 27 0z m18 0l-9 0 0 402 9 0z m27 0l-18 0 0 402 18 0z"/>
<glyph glyph-name="file-pdf" unicode="&#95;" d="M456 403c5-5 10-12 14-21 4-9 5-18 5-25l0-330c0-7-2-14-8-19-5-5-11-8-19-8l-384 0c-8 0-14 3-19 8-6 5-8 12-8 19l0 458c0 7 2 14 8 19 5 5 11 8 19 8l256 0c8 0 16-2 25-6 9-4 17-8 22-13z m-127 70l0-107 108 0c-2 5-4 9-7 11l-89 90c-2 2-6 4-12 6z m110-436l0 292-119 0c-8 0-14 3-19 8-6 5-8 12-8 20l0 118-220 0 0-438z m-147 169c6-5 14-10 24-16 11 1 22 2 33 2 28 0 45-5 51-14 3-4 3-9 1-15 0 0-1 0-1 0l0-1 0 0c-1-8-8-11-21-11-9 0-20 2-32 6-13 3-26 8-38 15-42-5-79-13-112-24-29-50-52-75-69-75-3 0-5 1-8 2l-7 4c0 0 0 0-1 1-2 2-3 5-2 10 2 8 7 17 16 26 9 10 22 19 38 28 2 2 5 1 6-2 1 0 1 0 1-1 10 16 20 35 30 56 13 26 23 51 30 75-4 16-7 31-9 46-1 15 0 27 2 36 2 8 6 12 12 12l7 0c4 0 7-2 10-5 3-4 4-10 2-19 0-1-1-2-1-2 0-1 0-2 0-3l0-8c0-24-1-42-4-55 11-31 25-54 42-68z m-165-117c10 4 23 19 40 45-10-8-18-16-25-24-7-9-12-16-15-21z m114 262c-3-8-3-20 0-37 0 1 0 5 2 12 0 1 0 5 2 13 0 0 0 1 1 2 0 0-1 0-1 0 0 1 0 1 0 1 0 0 0 0 0 0 0 4-1 8-4 11 0-1 0-1 0-1z m-35-188c25 10 52 18 81 23-1 0-2 1-4 2-2 2-3 3-4 4-15 13-27 30-37 51-5-17-13-36-23-57-6-10-10-18-13-23z m184 4c-4 5-18 7-40 7 15-5 27-8 36-8 2 0 4 0 5 0 0 0 0 1-1 1z"/>
<glyph glyph-name="file-word" unicode="&#96;" d="M456 403c5-5 10-12 14-21 4-9 5-18 5-25l0-330c0-7-2-14-8-19-5-5-11-8-19-8l-384 0c-8 0-14 3-19 8-6 5-8 12-8 19l0 458c0 7 2 14 8 19 5 5 11 8 19 8l256 0c8 0 16-2 25-6 9-4 17-8 22-13z m-127 70l0-107 108 0c-2 5-4 9-7 11l-89 90c-2 2-6 4-12 6z m110-436l0 292-119 0c-8 0-14 3-19 8-6 5-8 12-8 20l0 118-220 0 0-438z m-336 256l0-31 20 0 47-189 45 0 37 139c1 4 2 8 3 13 0 3 0 5 0 7l2 0 0-7c1-1 1-3 1-6 1-3 1-6 2-7l37-139 45 0 47 189 20 0 0 31-86 0 0-31 26 0-28-125c-1-4-2-8-2-13l-1-6-1 0-1 6c0 1-1 3-1 6-1 3-1 5-2 7l-41 156-32 0-41-156c-1-2-1-4-2-7 0-3-1-5-1-6l-1-6-1 0-1 6c0 5-1 9-2 13l-28 125 26 0 0 31z"/>
<glyph glyph-name="card" unicode="&#123;" d="M452 416l-392 0c-15 0-28-13-28-28l0-264c0-16 13-28 28-28l392 0c16 0 28 13 28 28l0 264c0 15-12 28-28 28z m-375-32l358 0c7 0 12-5 13-12l0-20-384 0 0 20c1 7 6 12 13 12z m358-256l-358 0c-7 0-12 5-13 12l0 116 384 0 0-116c-1-7-6-12-13-12z m-339 80l192 0 0-16-192 0z m0-32l96 0 0-16-96 0z m256 32l64 0 0-48-64 0z"/>
<glyph glyph-name="file-excel" unicode="&#124;" d="M456 403c5-5 10-12 14-21 4-9 5-18 5-25l0-330c0-7-2-14-8-19-5-5-11-8-19-8l-384 0c-8 0-14 3-19 8-6 5-8 12-8 19l0 458c0 7 2 14 8 19 5 5 11 8 19 8l256 0c8 0 16-2 25-6 9-4 17-8 22-13z m-127 70l0-107 108 0c-2 5-4 9-7 11l-89 90c-2 2-6 4-12 6z m110-436l0 292-119 0c-8 0-14 3-19 8-6 5-8 12-8 20l0 118-220 0 0-438z m-280 66l0-30 80 0 0 30-21 0 29 46c1 2 2 3 3 5 1 2 2 3 2 4 1 1 1 1 1 1l1 0c0-1 1-2 1-3 1 0 1-1 2-2 0-1 1-1 1-2 1-1 2-2 2-3l31-46-22 0 0-30 83 0 0 30-19 0-55 78 56 81 19 0 0 31-80 0 0-31 21 0-29-45c-1-2-2-3-3-5-1-2-2-3-3-4l0-1-1 0c0 1 0 2-1 3-1 2-3 4-5 7l-30 45 21 0 0 31-82 0 0-31 19 0 54-78-55-81z"/>
<glyph glyph-name="back" unicode="&#125;" d="M408 426l-152-152 152-151c3-4 5-8 5-13 0-5-2-10-5-13l-48-48c-3-3-8-5-13-5-5 0-9 2-12 5l-212 212c-4 4-6 8-6 13 0 5 2 10 6 13l212 212c3 4 7 6 12 6 5 0 10-2 13-6l48-47c3-4 5-8 5-13 0-5-2-9-5-13z"/>
<glyph glyph-name="cugat" unicode="&#126;" d="M496 315c2 3 4 4 4 6 2 5 11 8 5 14-5 4-12 0-17-5-2-1-3-3-4-5-4-8-10-10-18-10-16-1-24-8-28-27 7 0 13 3 21 0-14-18-25-35-44-46-4-2-9-5-14-1-4 4-2 10 0 15 6 10 20 18 10 33 0 0 1 2 1 2 6 3 6 7 2 12-4 5-9 5-15 3-28-9-53-23-68-51-5-9-15-13-26-19 9 14 15 27 19 41 1 3 3 8-2 11-5 3-8-1-11-3-5-5-10-11-15-17-9-10-18-20-30-28-3-2-6-4-10 0-4 3-3 6-1 10 3 8 9 14 16 20 10 9 23 13 34 20 4 3 9 7 7 12-3 7-9 5-14 4-24-9-46-22-58-46-5-9-12-13-19-18-3-2-6-3-9-1-4 3-2 6-1 10 5 12 13 21 20 31 4 7 11 16 3 22-7 5-12-4-16-9-16-17-30-34-48-47-3-2-6-7-10-3-3 3 0 7 1 10 1 4 4 6 7 8 7 6 14 12 19 20 3 4 10 8 5 13-5 4-12 4-18 0-3-1-6-5-8-7-11-12-17-27-26-39-16-19-36-33-59-43-13-5-27-9-39 2-11 11-9 25-5 39 0 1 0 3 1 4 18 43 47 76 84 103 5 3 12 7 17 2 4-4 2-11-2-16-10-14-14-32-36-38-13-3-23-19-29-33-2-5-1-9 3-12 4-4 8-5 13-2 31 21 56 47 68 84 4 11 4 23-6 31-9 8-20 4-29 0-54-27-91-70-113-126-2-6-3-12-3-19-1-33 19-50 51-45 17 3 31 12 45 22 15 11 27 25 42 39 1-4 2-7 3-9 6-15 15-17 27-6 5 5 9 11 14 16 1 2 2 7 5 5 3-2 1-6-2-9-1-8-6-17 3-22 9-5 16 2 22 7 8 6 14 12 21 18 12-27 20-29 44-9 2 2 4 5 7 7 2 2 4 5 9 5-6-15-13-28-26-38-12-8-21-19-27-32-3-5-7-12-2-16 5-5 11 1 15 5 11 9 21 20 27 33 11 20 30 31 47 46 2-4 2-7 3-9 9-20 16-22 31-7 6 5 11 11 18 19 0-6 0-7 0-9-2-8-6-17 3-22 9-6 16 2 22 7 10 8 19 17 28 26 2-6-2-11-2-16-1-7-1-14 5-18 6-4 13-2 18 1 14 7 24 18 34 29 3 2 4 6 1 10-8-6-15-11-23-16-3-2-7-4-11-1-3 3-3 7-2 10 3 14 10 26 17 38 1 2 3 4 6 3 14-4 18 8 24 16 8 9 3 11-6 11z m-136-74c-3-3-7-7-12-2-3 4-2 8 1 13 4 8 12 13 20 18 8 4 16 11 29 12-12-17-23-31-38-41z"/>
<glyph glyph-name="movistar" unicode="&#92;" d="M512 257c0 57-5 107-31 153-26 45-72 53-113 19-16-14-28-31-36-51-11-25-19-52-30-77-15-33-49-40-76-16-9 8-17 19-24 30-14 20-25 42-41 60-44 48-108 40-134-20-39-89-30-177 14-262 6-13 17-20 32-14 14 5 16 18 13 30-6 21-13 42-20 63-6 19-13 38-13 59 1 9-3 23 7 27 11 4 18-8 25-15 18-18 29-39 41-60 11-20 21-39 36-55 57-63 147-49 179 30 10 24 17 49 25 74 9 28 23 53 49 70 26 17 30 15 31-16 1-15 0-30 0-44-1-20-3-39-1-59 1-16 6-33 27-34 20-2 28 13 32 30 6 28 9 56 8 78z"/>
<glyph glyph-name="gildemeister" unicode="&#57344;" d="M127 204c86-38 173-39 261-3 24 10 46 26 61 49 6 9 5 15-4 22-43 33-91 59-143 77-13 5-23 3-34-6 46-22 90-46 127-86-77-40-155-48-233-10-48 24-47 66-2 96 2 1 4 3 6 4 71 34 142 37 214 6 17-8 33-9 54-8-6 6-9 8-11 11-4 2-7 5-11 7-66 39-137 50-213 37-45-8-87-22-120-56-28-29-30-66-5-98 14-19 32-33 53-42z m363-84c-41 10-83 17-125 21-114 12-227 6-338-21-5-1-14 0-13-7 1-10 10-5 15-4 52 8 105 13 157 15 101 3 202 0 301-16 6-3 10-1 11 4 2 6-4 7-8 8z"/>
<glyph glyph-name="uc" unicode="&#57345;" d="M170 239c0-45-15-61-51-61-36 0-49 18-49 58l0 147-61 0 0-150c0-65 40-100 110-100 71 0 112 35 112 102l0 148-61 0z m274-13c-5-32-28-48-61-48-44 0-69 30-69 81l0 3c0 50 26 81 68 81 34 0 52-16 56-46l62 0c-7 61-54 90-118 90-75 0-132-51-132-126l0-2c0-76 47-126 133-126 66 0 113 32 120 93z"/>
<glyph glyph-name="debito" unicode="&#57346;" d="M485 475c12 0 23-4 32-13 9-9 13-20 13-32l0-348c0-12-4-23-13-32-9-9-20-13-32-13l-458 0c-12 0-23 4-32 13-9 9-13 20-13 32l0 348c0 12 4 23 13 32 9 9 20 13 32 13z m-458-36c-2 0-4-1-6-3-2-2-3-4-3-6l0-64 476 0 0 64c0 2-1 4-3 6-2 2-4 3-6 3z m458-366c2 0 4 1 6 3 2 2 3 4 3 6l0 174-476 0 0-174c0-2 1-4 3-6 2-2 4-3 6-3z m-430 37l0 36 73 0 0-36z m110 0l0 36 109 0 0-36z"/>
<glyph glyph-name="cheque" unicode="&#57347;" d="M201 183l110 0 0 27-37 0 0 128-32 0-43-39 22-23c8 7 14 13 16 17l1 0 0-83-37 0z m146 73c0-13-2-27-6-41-4-13-9-26-17-38-7-12-17-21-29-29-12-7-25-11-39-11-14 0-27 4-39 11-12 8-22 17-29 29-8 12-13 25-17 38-4 14-6 28-6 41 0 13 2 27 6 41 4 13 9 26 17 38 7 12 17 21 29 29 12 7 25 11 39 11 14 0 27-4 39-11 12-8 22-17 29-29 8-12 13-25 17-38 4-14 6-28 6-41z m147-73l0 146c-20 0-38 7-52 22-14 14-21 31-21 51l-330 0c0-20-7-37-21-51-14-15-32-22-52-22l0-146c20 0 38-7 52-22 14-14 21-31 21-51l330 0c0 20 7 37 21 51 14 15 32 22 52 22z m36 238l0-330c0-5-2-9-5-12-4-4-8-6-13-6l-512 0c-5 0-9 2-13 6-3 3-5 7-5 12l0 330c0 5 2 9 5 12 4 4 8 6 13 6l512 0c5 0 9-2 13-6 3-3 5-7 5-12z"/>
<glyph glyph-name="credito" unicode="&#57348;" d="M491 229l-39 0c2 7 9 24 19 51l0 3c1 2 2 4 3 7 1 3 2 6 3 8l3-16z m-412 19l-17 84c-2 10-9 15-21 15l-77 0-1-3c60-15 98-47 116-96z m51 99l-47-125-4 26c-5 13-13 25-25 37-11 11-23 19-37 25l38-146 50 0 75 183z m39-183l48 0 30 183-48 0z m220 179c-13 5-27 8-43 8-23 0-42-6-57-17-15-12-23-26-23-44 0-19 14-36 42-50 9-4 15-8 19-11 3-4 5-8 5-12 0-5-3-10-8-13-6-3-13-4-20-4-16 0-31 3-45 9l-6 3-6-41c14-6 31-10 52-10 25 0 45 6 60 17 15 12 23 27 23 46 0 20-13 37-40 50-9 4-16 8-20 12-4 3-7 7-7 11 0 4 3 7 7 11 5 3 12 4 21 4 13 0 25-2 35-7l4-2z m121 4l-36 0c-13 0-21-5-25-15l-70-168 49 0 10 27 61 0c1-4 3-13 6-27l44 0z m75 92l0-366c0-10-3-18-11-26-7-7-16-10-25-10l-586 0c-9 0-18 3-25 10-8 8-11 16-11 26l0 366c0 10 3 18 11 26 7 7 16 10 25 10l586 0c9 0 18-3 25-10 8-8 11-16 11-26z"/>
</font>
</defs>
</svg>
